<svg width="24" height="24" viewBox="0 0 24 24" fill="none" xmlns="http://www.w3.org/2000/svg">
<path d="M11.75 3.31964L14.0016 7.63007C14.4364 8.46224 15.2356 9.04292 16.1614 9.19919L20.9566 10.0086L17.553 13.4821C16.8959 14.1527 16.5906 15.0922 16.728 16.021L17.44 20.8317L13.0848 18.668C12.2439 18.2502 11.256 18.2502 10.4152 18.668L6.05998 20.8317L6.77196 16.021C6.90941 15.0922 6.60414 14.1527 5.94702 13.4821L2.54336 10.0086L7.33862 9.19919C8.2644 9.04292 9.06363 8.46224 9.49833 7.63007L11.75 3.31964ZM13.0795 1.54523C12.5185 0.471249 10.9815 0.471251 10.4205 1.54523L7.72563 6.70405C7.58072 6.98144 7.31431 7.175 7.00572 7.22709L1.26665 8.19587C0.0718626 8.39755 -0.403101 9.85934 0.444953 10.7248L4.51853 14.8819C4.73757 15.1054 4.83933 15.4186 4.79351 15.7282L3.9414 21.4857C3.764 22.6844 5.00748 23.5878 6.09262 23.0487L11.3051 20.4591C11.5853 20.3199 11.9146 20.3199 12.1949 20.4591L17.4074 23.0487C18.4925 23.5878 19.736 22.6844 19.5586 21.4857L18.7065 15.7282C18.6607 15.4186 18.7624 15.1054 18.9815 14.8819L23.055 10.7248C23.9031 9.85934 23.4281 8.39755 22.2333 8.19587L16.4943 7.22709C16.1857 7.175 15.9193 6.98144 15.7744 6.70405L13.0795 1.54523Z" fill="#8E8E8E"/>
</svg>
