<svg width="378" height="259" viewBox="0 0 378 259" fill="none" xmlns="http://www.w3.org/2000/svg">
<path d="M0 212.852L47.2103 212.718L94.4205 212.668L188.847 212.573L283.273 212.668L330.484 212.718L377.694 212.852L330.484 212.991L283.273 213.036L188.847 213.13L94.4205 213.036L47.2103 212.985L0 212.852Z" fill="#263238"/>
<path d="M188.847 258.733C284.591 258.733 362.206 253.18 362.206 246.33C362.206 239.48 284.591 233.927 188.847 233.927C93.103 233.927 15.4873 239.48 15.4873 246.33C15.4873 253.18 93.103 258.733 188.847 258.733Z" fill="#EBEBEB"/>
<path d="M50.9853 149.47C48.8653 147.504 46.127 145.131 42.8823 145.978C39.8378 146.774 38.666 149.921 38.1242 152.544C37.4176 155.925 36.8699 159.339 36.3046 162.742C35.7393 166.145 35.1916 169.62 34.6675 173.068C34.3731 175.011 34.0786 176.966 33.796 178.899C33.6487 179.868 33.5074 180.843 33.3661 181.812C33.2248 182.781 33.0599 183.722 33.001 184.68C33.001 184.986 33.4956 185.031 33.5899 184.741C33.9785 183.12 34.1434 181.433 34.3966 179.79L35.1504 174.822C35.6568 171.536 36.1868 168.25 36.7109 164.964C37.235 161.678 37.7768 158.392 38.3303 155.106C38.8014 152.322 39.0193 148.869 41.6339 147.031C42.3404 146.572 43.159 146.291 44.0123 146.215C44.8655 146.139 45.7252 146.27 46.5098 146.596C48.2293 147.22 49.6014 148.378 50.9441 149.531C50.9522 149.533 50.9606 149.532 50.9683 149.529C50.9759 149.526 50.9823 149.521 50.9868 149.514C50.9912 149.507 50.9935 149.5 50.9932 149.492C50.9929 149.484 50.9902 149.476 50.9853 149.47Z" fill="#263238"/>
<path d="M48.1055 147.461C48.1055 147.461 43.7773 145.991 41.6279 148.981C39.4785 151.972 42.046 159.563 61.7793 163.868C61.1901 158.045 59.5801 152.355 57.0152 147.032C52.8166 138.277 45.2495 141.58 48.1055 147.461Z" fill="url(#paint0_linear_378_6974)"/>
<path d="M60.6311 162.626C60.3288 162.104 59.9966 161.599 59.6359 161.111C59.3061 160.632 58.9705 160.153 58.6348 159.674L57.8634 158.605C57.8634 158.521 57.8634 158.432 57.8987 158.343L57.9694 157.853C58.0165 157.508 58.0695 157.157 58.1225 156.806C58.1755 156.455 58.2403 156.115 58.3109 155.764C58.354 155.385 58.4409 155.012 58.5701 154.651C58.5701 154.595 58.4876 154.567 58.4817 154.651C58.4401 154.861 58.3811 155.067 58.3051 155.269C58.258 155.425 58.2167 155.581 58.1755 155.737C58.0754 156.093 57.9871 156.449 57.9046 156.806C57.8222 157.162 57.7574 157.463 57.6985 157.797C57.6985 157.953 57.6455 158.115 57.622 158.276C57.2686 157.797 56.9153 157.329 56.5443 156.867C55.4961 155.564 54.389 154.305 53.2407 153.08C53.2407 153.08 53.2407 153.08 53.2407 153.047C53.3408 151.086 53.2937 149.148 53.753 147.215C53.753 147.165 53.6824 147.137 53.6706 147.188C53.1463 149.002 52.8964 150.877 52.9286 152.757C52.5223 152.323 52.1042 151.888 51.6861 151.465C50.7203 150.485 49.7428 149.521 48.7417 148.58C48.7005 148.541 48.6416 148.58 48.6769 148.641C50.3434 150.312 51.9216 152.094 53.4586 153.888C52.2538 153.872 51.0489 153.915 49.8488 154.016C48.512 154.11 47.1871 154.272 45.8562 154.445C45.7973 154.445 45.815 154.534 45.8562 154.528C47.1778 154.348 48.5086 154.235 49.8429 154.188C51.1325 154.138 52.4104 154.188 53.7 154.188C54.5304 155.163 55.3548 156.149 56.1615 157.135H55.979C55.6787 157.135 55.3901 157.135 55.0721 157.135C54.4832 157.135 53.8944 157.185 53.3055 157.229C52.0795 157.324 50.8616 157.497 49.6603 157.747C49.6513 157.75 49.6435 157.756 49.6381 157.763C49.6326 157.771 49.6296 157.78 49.6296 157.789C49.6296 157.798 49.6326 157.807 49.6381 157.814C49.6435 157.822 49.6513 157.828 49.6603 157.831C50.8734 157.703 52.0865 157.591 53.3055 157.552C53.8944 157.552 54.4832 157.552 55.0721 157.552H55.979C56.1453 157.571 56.314 157.556 56.4737 157.508C57.0036 158.159 57.5395 158.811 58.0636 159.468C58.4817 159.986 58.8939 160.515 59.3003 161.044C59.7066 161.573 60.0894 162.158 60.5487 162.687C60.5899 162.709 60.6488 162.665 60.6311 162.626Z" fill="#263238"/>
<path d="M49.9723 151.705C49.2737 151.616 48.5685 151.582 47.8641 151.604C47.1574 151.604 46.4508 151.604 45.75 151.649C45.7429 151.646 45.7352 151.646 45.7277 151.646C45.7202 151.647 45.713 151.65 45.7067 151.654C45.7005 151.658 45.6954 151.664 45.6919 151.67C45.6884 151.676 45.6865 151.683 45.6865 151.691C45.6865 151.698 45.6884 151.705 45.6919 151.711C45.6954 151.718 45.7005 151.723 45.7067 151.727C45.713 151.731 45.7202 151.734 45.7277 151.735C45.7352 151.736 45.7429 151.735 45.75 151.732C46.4626 151.682 47.1751 151.671 47.8935 151.682C48.612 151.693 49.2715 151.755 49.9664 151.738C49.9899 151.732 49.9958 151.705 49.9723 151.705Z" fill="#263238"/>
<path d="M56.1669 153.208C56.2435 152.568 56.3318 151.927 56.4731 151.304C56.4731 151.242 56.3966 151.22 56.3848 151.304C56.2847 151.933 56.1551 152.557 56.0609 153.186C56.0079 153.498 55.9667 153.815 55.9255 154.127C55.863 154.421 55.8354 154.719 55.843 155.018C55.843 155.033 55.8492 155.047 55.8603 155.058C55.8713 155.068 55.8863 155.074 55.9019 155.074C55.9175 155.074 55.9325 155.068 55.9436 155.058C55.9546 155.047 55.9608 155.033 55.9608 155.018C56.018 154.726 56.0515 154.43 56.0609 154.133C56.0904 153.81 56.1257 153.509 56.1669 153.208Z" fill="#263238"/>
<path d="M54.8653 146.147C54.6945 146.765 54.5237 147.394 54.4001 148.023C54.3412 148.346 54.2882 148.664 54.2411 148.987C54.1814 149.299 54.1597 149.617 54.1763 149.934C54.1763 149.934 54.2175 149.934 54.2293 149.934C54.307 149.639 54.3582 149.34 54.3824 149.037C54.4295 148.725 54.4766 148.419 54.5355 148.107C54.6533 147.455 54.777 146.815 54.9536 146.174C54.9654 146.119 54.8829 146.091 54.8653 146.147Z" fill="#263238"/>
<path d="M29.1732 183.996C29.0672 182.821 28.9436 181.646 28.814 180.47C28.5549 178.146 28.2585 175.826 27.9248 173.509C27.595 171.203 27.2829 168.886 26.8884 166.586C26.7415 165.517 26.4892 164.464 26.1346 163.439C26.0063 163 25.7735 162.595 25.454 162.254C25.1346 161.913 24.7369 161.646 24.2914 161.473C21.9713 160.716 20.4049 162.994 19.4685 164.603C19.4391 164.653 19.5156 164.687 19.5451 164.642C20.134 163.885 21.6592 161.741 23.4199 161.857C24.5977 161.924 25.5516 162.715 26.1228 165.511C27.542 172.473 28.8199 186.608 28.9671 187.532C29.0437 188.017 29.4088 188 29.4147 187.471C29.4206 186.302 29.2616 185.143 29.1732 183.996Z" fill="#263238"/>
<path d="M20.0919 163.74C20.0919 163.74 22.1235 156.962 17.6363 160.348C10.1693 165.967 9.9043 178.259 9.9043 178.259C9.9043 178.259 23.1776 170.98 24.8323 166.157C27.288 158.995 20.0919 163.74 20.0919 163.74Z" fill="url(#paint1_linear_378_6974)"/>
<path d="M22.607 167.082C21.5647 167.282 20.5106 167.41 19.4565 167.555L17.9608 167.755L16.9479 167.867C17.9372 166.58 18.9324 165.294 19.8923 163.968C19.9276 163.918 19.8452 163.868 19.8039 163.907C19.0188 164.677 18.2777 165.485 17.5839 166.33L16.995 164.759C16.7653 164.152 16.5239 163.545 16.359 162.921C16.359 162.866 16.2589 162.921 16.2766 162.921C16.4591 163.545 16.5828 164.18 16.7594 164.798C16.9361 165.416 17.1245 165.996 17.3483 166.58C16.8654 167.176 16.3943 167.789 15.9409 168.407C15.7171 167.794 15.4286 167.204 15.2284 166.58C15.2284 166.53 15.1283 166.552 15.1459 166.58C15.3815 167.271 15.511 167.984 15.7348 168.674C15.4286 169.098 15.1283 169.521 14.8338 169.944C14.2979 170.73 13.7915 171.526 13.2968 172.328C13.2594 172.344 13.2283 172.371 13.2082 172.405C13.1881 172.439 13.18 172.479 13.185 172.517C12.3429 173.887 11.5479 175.302 10.7588 176.689C10.7588 176.733 10.8118 176.778 10.8353 176.728C11.6244 175.341 12.5019 173.988 13.4146 172.662C13.5543 172.621 13.6985 172.595 13.8445 172.584L14.3038 172.489L15.3285 172.256C15.9998 172.094 16.6652 171.944 17.3542 171.832C17.4072 171.832 17.3542 171.743 17.3248 171.754C16.5239 171.899 15.7171 171.983 14.9045 172.072C14.5217 172.116 14.1389 172.161 13.7562 172.217H13.7032C14.1802 171.532 14.663 170.846 15.1518 170.178C15.6406 169.51 16.1293 168.858 16.6299 168.207C17.0892 168.145 17.5485 168.034 18.002 167.95L19.5448 167.666C20.5695 167.477 21.5941 167.254 22.6247 167.109C22.6894 167.137 22.6659 167.082 22.607 167.082Z" fill="#263238"/>
<path d="M14.6279 167.733L14.4512 167.176C14.3292 166.81 14.227 166.438 14.145 166.062C14.145 166.012 14.0508 166.034 14.0625 166.062C14.145 166.446 14.2451 166.831 14.3334 167.209C14.4201 167.588 14.5363 167.961 14.6809 168.323C14.6903 168.338 14.7048 168.35 14.7221 168.356C14.7393 168.362 14.7583 168.363 14.7759 168.358C14.7936 168.353 14.8089 168.342 14.8194 168.328C14.8299 168.313 14.8351 168.296 14.834 168.279C14.7751 168.112 14.6985 167.922 14.6279 167.733Z" fill="#263238"/>
<path d="M23.9617 165.493C23.3728 165.583 22.7427 165.622 22.1362 165.672C21.5297 165.722 20.9172 165.8 20.3107 165.889C20.2753 165.889 20.2753 165.939 20.3107 165.939C20.8996 165.9 21.5297 165.855 22.1362 165.777C22.7427 165.699 23.3493 165.616 23.9617 165.577C24.0265 165.577 24.0206 165.488 23.9617 165.493Z" fill="#263238"/>
<path d="M38.9425 175.435C38.707 170.422 38.3537 165.465 37.8413 160.498C37.5763 158.019 37.2819 155.546 36.9109 153.085C36.5826 150.666 36.0789 148.271 35.4034 145.917C34.9316 144.087 34.0722 142.367 32.8771 140.86C32.2854 140.129 31.507 139.552 30.6149 139.184C29.7229 138.816 28.7465 138.668 27.7774 138.755C25.469 139.022 23.6082 140.398 22.0005 141.896C20.1986 143.567 18.5438 145.404 16.8714 147.198C16.4474 147.651 16.0293 148.107 15.6171 148.568C15.5759 148.607 15.6171 148.663 15.6819 148.624C17.3131 146.847 19.009 145.126 20.7875 143.477C22.4304 141.951 24.1205 140.286 26.3936 139.657C27.4493 139.338 28.5797 139.313 29.6501 139.584C30.5 139.841 31.2662 140.299 31.876 140.916C33.0882 142.244 33.9482 143.827 34.3846 145.533C35.8038 150.116 36.3103 154.928 36.8344 159.662C37.3585 164.396 37.7353 169.297 38.0121 174.143C38.2889 178.988 38.4714 183.861 38.9661 188.707C39.025 189.303 39.1074 189.898 39.1899 190.494C39.2429 190.895 39.9024 190.895 39.8671 190.494C39.4195 185.46 39.1781 180.447 38.9425 175.435Z" fill="#263238"/>
<path d="M21.7116 142.409C21.7116 142.409 24.7208 137.135 21.164 135.441C17.6071 133.748 5.70594 146.33 2.20801 164.72C2.20801 164.72 21.4525 156.672 27.9832 148.647C34.5138 140.621 27.1116 138.856 21.7116 142.409Z" fill="url(#paint2_linear_378_6974)"/>
<path d="M24.55 146.698C22.3889 146.698 20.2336 146.542 18.0724 146.559L19.2501 145.239C19.8557 144.656 20.4203 144.037 20.9402 143.384C20.9402 143.34 20.9049 143.278 20.8637 143.312C20.287 143.792 19.7477 144.312 19.2501 144.866L17.6307 146.503C16.8063 147.35 15.9995 148.207 15.1869 149.07V147.751C15.1869 147.054 15.1869 146.364 15.1869 145.668C15.1869 144.264 15.1869 142.849 15.2988 141.446C15.2988 141.39 15.2163 141.396 15.2104 141.446C15.1103 142.855 14.9513 144.264 14.8807 145.673C14.8453 146.369 14.8277 147.06 14.8159 147.756C14.8159 148.113 14.8159 148.475 14.8159 148.831C14.8159 149.026 14.8159 149.232 14.8159 149.432L14.4331 149.833C12.7077 151.699 11.0647 153.632 9.46889 155.592C9.46889 155.486 9.46889 155.375 9.46889 155.269C9.46889 155.052 9.41589 154.835 9.39234 154.618C9.33934 154.15 9.26867 153.682 9.19212 153.214C9.11556 152.746 9.05079 152.34 8.97424 151.9C8.86362 151.408 8.77911 150.912 8.72102 150.413C8.72366 150.406 8.72454 150.399 8.72359 150.392C8.72263 150.384 8.71987 150.378 8.71553 150.372C8.71119 150.366 8.70541 150.361 8.69867 150.358C8.69194 150.354 8.68445 150.353 8.67685 150.353C8.66925 150.353 8.66177 150.354 8.65503 150.358C8.6483 150.361 8.64252 150.366 8.63818 150.372C8.63384 150.378 8.63107 150.384 8.63012 150.392C8.62916 150.399 8.63004 150.406 8.63269 150.413C8.72288 150.909 8.78383 151.409 8.81524 151.911C8.85646 152.362 8.90357 152.813 8.94479 153.264C8.98601 153.715 9.03312 154.166 9.08023 154.612C9.08023 154.829 9.12145 155.046 9.1509 155.264C9.1509 155.369 9.1509 155.481 9.19212 155.587C9.19894 155.678 9.22928 155.766 9.28045 155.843L8.46191 156.862C7.37249 158.227 6.30073 159.608 5.22898 160.989C5.19364 161.028 5.25842 161.089 5.29375 161.045C6.30662 159.792 7.34893 158.566 8.40891 157.347C9.19801 157.38 10.0048 157.347 10.7998 157.313C11.5947 157.28 12.4663 157.313 13.3025 157.313C13.3614 157.313 13.3555 157.23 13.3025 157.23C12.4663 157.23 11.6301 157.23 10.7998 157.23C9.96944 157.23 9.26278 157.23 8.49724 157.23C9.42767 156.155 10.3699 155.097 11.3121 154.033L12.3485 152.874C12.6684 152.916 12.992 152.927 13.3143 152.908H14.4508L16.5825 152.88C18.0488 152.88 19.5269 152.808 20.9873 152.808C20.999 152.808 21.0103 152.803 21.0186 152.795C21.0268 152.787 21.0315 152.777 21.0315 152.766C21.0315 152.755 21.0268 152.744 21.0186 152.736C21.0103 152.728 20.999 152.724 20.9873 152.724C19.5151 152.724 18.0429 152.646 16.5766 152.613C15.8641 152.613 15.1516 152.568 14.439 152.562H13.3025C13.0846 152.562 12.8667 152.562 12.6429 152.562C13.4517 151.657 14.2604 150.751 15.0691 149.845C15.0908 149.84 15.111 149.83 15.128 149.817C15.9171 148.937 16.7003 148.057 17.4835 147.188C17.5895 147.065 17.7014 146.949 17.8133 146.832C20.0569 146.898 22.2946 146.759 24.5324 146.798C24.5464 146.8 24.5608 146.797 24.5724 146.789C24.584 146.782 24.5919 146.77 24.5942 146.756C24.5965 146.743 24.5932 146.729 24.5849 146.719C24.5766 146.708 24.5641 146.7 24.55 146.698Z" fill="#263238"/>
<path d="M23.4308 150.312H22.9067C22.8537 150.312 22.8596 150.385 22.9067 150.39H23.4308C23.4897 150.373 23.4897 150.312 23.4308 150.312Z" fill="#263238"/>
<path d="M22.2656 150.318C21.5766 150.318 20.8817 150.318 20.1868 150.279L19.1504 150.245C18.8298 150.206 18.5052 150.206 18.1846 150.245C18.1493 150.245 18.1846 150.301 18.1846 150.306C18.5042 150.368 18.8307 150.39 19.1563 150.373H20.1927C20.8876 150.373 21.5766 150.373 22.2715 150.373C22.3303 150.401 22.3245 150.318 22.2656 150.318Z" fill="#263238"/>
<path d="M16.2175 156.461C14.8118 156.24 13.3906 156.119 11.9658 156.099V156.126C13.3791 156.255 14.7924 156.327 16.1998 156.544C16.2528 156.55 16.3058 156.466 16.2175 156.461Z" fill="#263238"/>
<path d="M10.4167 150.608C10.4167 150.491 10.4167 150.374 10.3696 150.257C10.3343 149.99 10.293 149.7 10.2459 149.466C10.1635 148.965 10.0752 148.469 9.97505 147.973C9.9717 147.965 9.96568 147.958 9.95779 147.952C9.94989 147.947 9.9405 147.944 9.93089 147.944C9.92127 147.944 9.91188 147.947 9.90399 147.952C9.89609 147.958 9.89007 147.965 9.88672 147.973C9.9515 148.486 10.0104 149.004 10.0634 149.522C10.0634 149.772 10.1046 150.028 10.1282 150.279C10.1202 150.523 10.1581 150.766 10.24 150.998C10.248 151.014 10.2608 151.028 10.277 151.038C10.2932 151.048 10.312 151.053 10.3313 151.053C10.3506 151.053 10.3695 151.048 10.3857 151.038C10.4019 151.028 10.4147 151.014 10.4226 150.998C10.4487 150.869 10.4467 150.736 10.4167 150.608Z" fill="#263238"/>
<path d="M38.7538 135.637C38.0648 134.422 37.1874 132.852 35.4678 132.924C34.0486 133.008 33.4068 134.378 33.1123 135.508C32.176 139.012 32.1053 142.704 31.9346 146.296C31.5518 153.882 31.2044 161.473 31.1514 169.07C31.1514 171.175 31.1514 173.28 31.1514 175.385C31.1514 177.53 31.1514 179.691 31.3104 181.835C31.3104 181.876 31.3277 181.916 31.3587 181.945C31.3896 181.974 31.4315 181.991 31.4753 181.991C31.519 181.991 31.5609 181.974 31.5918 181.945C31.6228 181.916 31.6401 181.876 31.6401 181.835C31.6401 179.997 31.5871 178.159 31.5812 176.321C31.5754 174.483 31.5812 172.734 31.6166 170.947C31.6755 167.315 31.7775 163.686 31.9228 160.058C32.0641 156.449 32.2349 152.846 32.3939 149.243C32.4763 147.438 32.5529 145.639 32.6412 143.835C32.7296 142.03 32.8061 140.343 33.0181 138.611C33.1359 137.636 33.2831 136.661 33.501 135.703C33.6081 134.992 33.9152 134.321 34.3902 133.76C34.7188 133.454 35.1515 133.269 35.611 133.238C36.0705 133.206 36.5269 133.33 36.8988 133.587C37.6754 134.125 38.2855 134.85 38.6654 135.687C38.6831 135.731 38.7773 135.687 38.7538 135.637Z" fill="#263238"/>
<path d="M38.2883 135.058C38.2883 135.058 36.875 130.335 39.9961 132.696C45.1958 136.628 45.3843 145.172 45.3843 145.172C45.3843 145.172 36.1389 140.093 34.9847 136.745C33.277 131.755 38.2883 135.058 38.2883 135.058Z" fill="url(#paint3_linear_378_6974)"/>
<path d="M43.4356 141.668C43.3532 141.54 43.2649 141.412 43.1765 141.284C43.1883 141.149 43.1883 141.013 43.1765 140.877C43.1765 140.677 43.1765 140.471 43.1765 140.27C43.1765 139.869 43.1765 139.474 43.2236 139.073C43.2236 139.023 43.1353 139.023 43.1353 139.073C43.1118 139.444 43.0941 139.834 43.0823 140.243V140.833C43.0823 140.911 43.0823 140.994 43.0823 141.084C42.7172 140.527 42.3462 140.025 41.9576 139.502L41.616 139.056C41.5718 138.545 41.5718 138.031 41.616 137.519C41.616 136.962 41.616 136.405 41.6513 135.848C41.6513 135.798 41.563 135.798 41.563 135.848C41.563 136.405 41.5159 136.962 41.4865 137.558C41.4511 137.964 41.4393 138.371 41.4511 138.778C40.556 137.631 39.6138 136.522 38.654 135.436C38.6186 135.403 38.5539 135.436 38.5833 135.492C39.1722 136.199 39.7611 136.929 40.3028 137.67C39.2134 137.43 38.1122 137.291 37.0051 137.14C36.9462 137.14 36.9286 137.213 37.0051 137.218C38.1829 137.385 39.3253 137.664 40.4795 137.909C40.9211 138.499 41.3628 139.09 41.7986 139.686C41.9752 139.925 42.146 140.176 42.3227 140.415H42.2167L41.8575 140.371C41.6042 140.343 41.3451 140.321 41.086 140.304C40.556 140.265 40.0202 140.237 39.4902 140.209C39.4313 140.209 39.4313 140.293 39.4902 140.293C40.0143 140.293 40.5384 140.343 41.0625 140.393L41.8869 140.488L42.252 140.532H42.358C42.6524 140.95 42.9469 141.362 43.2472 141.774C43.7654 142.504 44.2306 143.283 44.7901 144.002C44.7963 144.011 44.806 144.017 44.8171 144.019C44.8281 144.021 44.8396 144.019 44.849 144.013C44.8583 144.007 44.8648 143.998 44.867 143.988C44.8692 143.977 44.867 143.966 44.8607 143.957C44.4336 143.169 43.9578 142.404 43.4356 141.668Z" fill="#263238"/>
<path d="M41.1329 136.339C41.1329 136.155 41.1329 135.971 41.1329 135.782C41.1222 135.395 41.1379 135.008 41.1801 134.623C41.1801 134.562 41.0976 134.556 41.0917 134.623C41.0917 135.002 41.0505 135.386 41.0328 135.765C41.0328 135.96 41.0328 136.149 41.0328 136.322V136.589C41.0151 136.679 41.0151 136.772 41.0328 136.862C41.0359 136.869 41.0412 136.876 41.048 136.88C41.0548 136.884 41.0629 136.887 41.0711 136.887C41.0794 136.887 41.0874 136.884 41.0942 136.88C41.101 136.876 41.1063 136.869 41.1094 136.862C41.1211 136.777 41.1211 136.691 41.1094 136.606C41.1388 136.528 41.1329 136.45 41.1329 136.339Z" fill="#263238"/>
<path d="M39.9904 138.293C39.6489 138.237 39.2955 138.22 38.9481 138.192C38.6007 138.164 38.1885 138.131 37.8057 138.081C37.7986 138.078 37.7909 138.078 37.7834 138.078C37.7758 138.079 37.7686 138.082 37.7624 138.086C37.7562 138.09 37.7511 138.096 37.7475 138.102C37.744 138.108 37.7422 138.116 37.7422 138.123C37.7422 138.13 37.744 138.137 37.7475 138.143C37.7511 138.15 37.7562 138.155 37.7624 138.159C37.7686 138.163 37.7758 138.166 37.7834 138.167C37.7909 138.168 37.7986 138.167 37.8057 138.164C38.5359 138.209 39.2602 138.332 39.9904 138.359C39.9998 138.359 40.0088 138.356 40.0154 138.35C40.022 138.343 40.0258 138.335 40.0258 138.326C40.0258 138.317 40.022 138.309 40.0154 138.302C40.0088 138.296 39.9998 138.293 39.9904 138.293Z" fill="#263238"/>
<path d="M42.8997 138.321C42.8997 138.355 42.8997 138.461 42.8997 138.505V138.984C42.8997 139.096 42.8997 139.207 42.8997 139.318C42.8791 139.412 42.8791 139.509 42.8997 139.602C42.8997 139.602 42.8997 139.602 42.9351 139.602C42.947 139.559 42.947 139.513 42.9351 139.469V138.5C42.9351 138.455 42.9351 138.36 42.9351 138.321C42.9351 138.282 42.835 138.243 42.8997 138.321Z" fill="#263238"/>
<path d="M38.966 160.821C37.0227 159.446 35.2738 157.48 32.6592 157.363C30.498 157.279 28.9905 158.816 28.1248 160.532C27.687 161.441 27.3324 162.383 27.0648 163.35C26.6762 164.642 26.3052 165.94 25.9636 167.248C25.2864 169.816 24.7034 172.4 24.2323 175.007C23.9673 176.46 23.7259 177.919 23.5316 179.378C23.2819 180.853 23.1304 182.341 23.0781 183.834C23.0827 183.888 23.1072 183.939 23.1473 183.978C23.1873 184.017 23.2405 184.042 23.2977 184.048C23.3548 184.054 23.4124 184.041 23.4604 184.011C23.5085 183.981 23.5441 183.936 23.561 183.884C23.8201 182.659 23.932 181.4 24.1499 180.164C24.3678 178.927 24.5444 177.68 24.7388 176.438C25.1863 173.965 25.6986 171.492 26.2875 169.047C26.8764 166.73 27.3946 164.38 28.1837 162.13C28.7726 160.515 29.6559 158.627 31.505 158.048C34.308 157.162 36.8579 159.412 38.913 160.866C38.9484 160.916 39.0131 160.855 38.966 160.821Z" fill="#263238"/>
<path d="M36.9517 159.501C36.9517 159.501 35.1851 154.661 37.7526 153.715C41.6392 152.289 51.8091 163.121 49.8187 179.724C49.8187 179.724 41.9631 175.63 36.1567 171.024C30.3504 166.418 28.8723 160.403 31.4457 158.844C34.0191 157.285 36.9517 159.501 36.9517 159.501Z" fill="url(#paint4_linear_378_6974)"/>
<path d="M48.6473 176.165C48.3744 175.588 48.0575 175.029 47.6993 174.495C47.3695 173.938 47.0338 173.381 46.6864 172.824C46.0092 171.71 45.3379 170.635 44.6489 169.555C44.537 169.376 44.4192 169.204 44.3073 169.031C44.3073 168.964 44.3073 168.897 44.3485 168.836C44.3898 168.675 44.4251 168.513 44.4663 168.352C44.5488 167.995 44.6194 167.628 44.6901 167.238C44.8314 166.53 44.961 165.812 45.1612 165.11C45.1612 165.06 45.0846 165.043 45.0729 165.11C44.9139 165.817 44.6783 166.519 44.484 167.21C44.378 167.555 44.2602 167.895 44.166 168.24C44.1307 168.357 44.1012 168.48 44.0659 168.597C43.2297 167.299 42.3817 166.012 41.463 164.765C41.522 164.594 41.5537 164.416 41.5573 164.236C41.5573 163.991 41.6162 163.751 41.6456 163.506C41.7104 162.949 41.781 162.392 41.8635 161.869C42.0109 160.799 42.2173 159.738 42.4818 158.689C42.4818 158.638 42.4053 158.622 42.3935 158.689C42.1108 159.73 41.8046 160.777 41.5985 161.835C41.4925 162.359 41.3983 162.877 41.3217 163.4C41.2864 163.668 41.2569 163.929 41.2275 164.191C41.2275 164.269 41.2275 164.347 41.2275 164.431C40.9448 164.052 40.6386 163.679 40.3677 163.317C39.4668 162.203 38.5422 161.089 37.6 160.02C37.5647 159.981 37.494 160.02 37.5293 160.07C39.1371 162.022 40.6122 164.068 41.9459 166.196C42.205 166.586 42.4582 166.976 42.7115 167.371L42.4583 167.338C42.1285 167.299 41.7987 167.282 41.4689 167.249L39.4844 167.087C38.1594 166.987 36.8345 166.915 35.5095 166.781C35.4565 166.781 35.4388 166.853 35.5095 166.859C36.8463 167.004 38.1771 167.21 39.5139 167.388C40.1675 167.477 40.8212 167.561 41.4807 167.639C41.9786 167.736 42.4858 167.784 42.9941 167.783L44.5547 170.184C44.437 170.178 44.319 170.178 44.2013 170.184H42.2168C41.3629 170.184 40.515 170.184 39.6611 170.184C39.6022 170.184 39.614 170.267 39.6611 170.267C40.5267 170.267 41.3865 170.318 42.2521 170.362L43.477 170.429L44.0659 170.473C44.244 170.513 44.4295 170.513 44.6076 170.473C45.0493 171.153 45.4969 171.832 45.9326 172.512C46.3684 173.191 46.7512 173.765 47.1752 174.389C47.5659 175.05 48.0109 175.681 48.506 176.277C48.5943 176.243 48.6945 176.216 48.6473 176.165Z" fill="#263238"/>
<path d="M44.9018 162.748C44.8225 163.281 44.7045 163.807 44.5484 164.324C44.4071 164.881 44.2363 165.399 44.0538 165.923C44.0482 165.93 44.0444 165.938 44.0428 165.947C44.0413 165.955 44.0419 165.964 44.0447 165.973C44.0475 165.981 44.0523 165.989 44.0588 165.995C44.0654 166.001 44.0734 166.006 44.0823 166.009C44.0911 166.012 44.1005 166.013 44.1098 166.011C44.119 166.01 44.1277 166.007 44.1353 166.001C44.1429 165.996 44.1491 165.989 44.1533 165.982C44.1576 165.974 44.1598 165.965 44.1598 165.956C44.3364 165.433 44.4895 164.904 44.625 164.374C44.7604 163.845 44.8488 163.294 44.9901 162.765C45.0019 162.709 44.9076 162.693 44.9018 162.748Z" fill="#263238"/>
<path d="M39.1245 165.967C39.0071 165.87 38.8564 165.816 38.7005 165.816L37.9585 165.722C37.4992 165.66 37.0339 165.616 36.5746 165.56C35.6206 165.454 34.6608 165.371 33.7009 165.254C33.6479 165.254 33.6302 165.332 33.7009 165.337C34.6019 165.443 35.5029 165.571 36.4038 165.683L37.7288 165.844L38.3648 165.911C38.613 165.916 38.8591 165.955 39.095 166.028C39.1245 166.073 39.1598 166.017 39.1245 165.967Z" fill="#263238"/>
<path d="M44.8841 173.291C44.4366 173.252 43.9773 173.241 43.5238 173.225H42.8407H42.511C42.3681 173.239 42.224 173.239 42.0811 173.225C42.0163 173.225 42.0104 173.319 42.0811 173.308C42.2142 173.294 42.3484 173.294 42.4815 173.308H42.8349L43.5238 173.347C43.9714 173.347 44.4307 173.397 44.8841 173.397C44.899 173.397 44.9132 173.392 44.9237 173.382C44.9342 173.372 44.9401 173.358 44.9401 173.344C44.9401 173.33 44.9342 173.317 44.9237 173.307C44.9132 173.297 44.899 173.291 44.8841 173.291Z" fill="#263238"/>
<path d="M47.6578 171.431C47.7108 171.192 47.7579 170.947 47.805 170.702C47.8993 170.223 47.9876 169.744 48.0818 169.27C48.0785 169.262 48.0724 169.254 48.0645 169.249C48.0567 169.244 48.0473 169.241 48.0376 169.241C48.028 169.241 48.0186 169.244 48.0108 169.249C48.0029 169.254 47.9968 169.262 47.9935 169.27C47.8816 169.738 47.7756 170.2 47.6637 170.668C47.6048 170.902 47.5518 171.136 47.4988 171.37L47.4282 171.693C47.3909 171.803 47.3769 171.918 47.3869 172.033C47.3869 172.072 47.4576 172.105 47.487 172.066C47.585 171.866 47.6429 171.651 47.6578 171.431Z" fill="#263238"/>
<path d="M43.8359 185.739L43.4001 192.601L42.1105 212.851H20.1512L18.8557 192.601L18.4199 185.739H43.8359Z" fill="#455A64"/>
<path d="M43.8359 185.739L43.4001 192.601H18.8557L18.4199 185.739H43.8359Z" fill="#263238"/>
<path d="M45.8619 180.883H16.3945V187.75H45.8619V180.883Z" fill="#455A64"/>
<path d="M340.783 147.435H177.311V247.394H340.783V147.435Z" fill="url(#paint5_linear_378_6974)"/>
<path d="M289.268 137.08H340.783V147.434H286.306L289.268 137.08Z" fill="url(#paint6_linear_378_6974)"/>
<g opacity="0.1">
<path d="M340.783 147.433H177.311V247.392H340.783V147.433Z" fill="black"/>
<path d="M289.268 137.08H340.783V147.434H286.306L289.268 137.08Z" fill="black"/>
</g>
<path d="M202.938 81.7042C202.542 80.0883 202.542 78.4079 202.938 76.792C203.149 77.595 203.248 78.4207 203.232 79.2481C203.245 80.0753 203.146 80.9007 202.938 81.7042Z" fill="#263238"/>
<path d="M208.227 83.1466C208.47 82.3521 208.821 81.5903 209.269 80.8799C209.692 80.1565 210.212 79.4881 210.818 78.8916C210.576 79.687 210.226 80.4491 209.775 81.1584C209.351 81.8812 208.831 82.5495 208.227 83.1466Z" fill="#263238"/>
<path d="M212.049 86.8841C212.678 86.3114 213.383 85.8173 214.145 85.4138C214.892 84.9955 215.692 84.6663 216.524 84.4336C215.248 85.5609 213.718 86.3988 212.049 86.8841Z" fill="#263238"/>
<path d="M213.373 91.946C214.221 91.7515 215.092 91.658 215.964 91.6676C216.839 91.6526 217.712 91.7463 218.561 91.946C217.713 92.1402 216.843 92.2337 215.97 92.2245C215.095 92.2365 214.223 92.1429 213.373 91.946Z" fill="#263238"/>
<path d="M211.848 96.9521C212.687 97.1809 213.493 97.5103 214.244 97.9324C215.008 98.3372 215.714 98.8312 216.347 99.4027C214.671 98.9164 213.133 98.0787 211.848 96.9521Z" fill="#263238"/>
<path d="M207.885 100.562C208.489 101.161 209.011 101.829 209.439 102.551C209.888 103.259 210.238 104.019 210.482 104.812C209.285 103.601 208.396 102.148 207.885 100.562Z" fill="#263238"/>
<path d="M202.538 101.815C202.935 103.431 202.935 105.112 202.538 106.728C202.327 105.925 202.228 105.099 202.244 104.272C202.231 103.444 202.33 102.619 202.538 101.815Z" fill="#263238"/>
<path d="M197.249 100.373C197.005 101.168 196.655 101.929 196.207 102.64C195.785 103.365 195.264 104.036 194.658 104.634C194.902 103.837 195.252 103.074 195.701 102.361C196.128 101.641 196.649 100.973 197.249 100.373Z" fill="#263238"/>
<path d="M193.434 96.624C192.801 97.1956 192.094 97.6895 191.331 98.0943C190.582 98.5225 189.776 98.8558 188.935 99.0857C190.22 97.9559 191.757 97.1145 193.434 96.624Z" fill="#263238"/>
<path d="M192.109 91.5731C191.259 91.7673 190.386 91.8609 189.512 91.8516C188.638 91.8655 187.765 91.7738 186.915 91.5787C187.764 91.38 188.637 91.2845 189.512 91.2947C190.386 91.2854 191.259 91.379 192.109 91.5731Z" fill="#263238"/>
<path d="M193.629 86.5726C192.789 86.3409 191.984 86.0097 191.232 85.5868C190.47 85.1821 189.764 84.6902 189.13 84.1221C189.97 84.3508 190.775 84.6802 191.527 85.1023C192.292 85.5043 192.998 85.9985 193.629 86.5726Z" fill="#263238"/>
<path d="M197.597 82.9858C196.991 82.3903 196.469 81.724 196.042 81.0031C195.59 80.2941 195.237 79.532 194.994 78.7363C195.601 79.3327 196.124 80.001 196.549 80.7246C196.996 81.4341 197.349 82.1937 197.597 82.9858Z" fill="#263238"/>
<path d="M329.282 98.6807H222.96V227.757H329.282V98.6807Z" fill="#EBEBEB"/>
<path d="M329.276 227.757L222.96 227.935H222.772V227.757L222.672 98.6801V98.4072H222.96L329.276 98.4685H329.5V98.6801L329.276 227.757ZM329.276 227.757L329.058 98.6801L329.276 98.8862L222.96 98.953L223.249 98.6801L223.143 227.757L222.96 227.584L329.276 227.757Z" fill="#DBDBDB"/>
<path d="M234.591 126.265L276.118 126.165L317.646 126.265L276.118 126.366L234.591 126.265Z" fill="#C7C7C7"/>
<path d="M234.591 129.467L276.118 129.367L317.646 129.467L276.118 129.568L234.591 129.467Z" fill="#C7C7C7"/>
<path d="M234.591 132.675L276.118 132.575L317.646 132.675L276.118 132.77L234.591 132.675Z" fill="#C7C7C7"/>
<path d="M234.591 135.878L276.118 135.777L317.646 135.878L276.118 135.978L234.591 135.878Z" fill="#C7C7C7"/>
<path d="M234.591 139.08L276.118 138.979L317.646 139.08L276.118 139.18L234.591 139.08Z" fill="#C7C7C7"/>
<path d="M234.591 142.283L276.118 142.183L317.646 142.283L276.118 142.383L234.591 142.283Z" fill="#C7C7C7"/>
<path d="M234.591 145.484L276.118 145.384L317.646 145.484L276.118 145.584L234.591 145.484Z" fill="#C7C7C7"/>
<path d="M234.591 148.687L276.118 148.593L317.646 148.687L276.118 148.788L234.591 148.687Z" fill="#C7C7C7"/>
<path d="M234.591 151.895L276.118 151.795L317.646 151.895L276.118 151.99L234.591 151.895Z" fill="#C7C7C7"/>
<path d="M234.591 155.097L276.118 154.997L317.646 155.097L276.118 155.192L234.591 155.097Z" fill="#C7C7C7"/>
<path d="M234.591 158.3L276.118 158.2L317.646 158.3L276.118 158.401L234.591 158.3Z" fill="#C7C7C7"/>
<path d="M234.591 161.502L276.118 161.401L317.646 161.502L276.118 161.602L234.591 161.502Z" fill="#C7C7C7"/>
<path d="M234.591 164.705L276.118 164.604L317.646 164.705L276.118 164.805L234.591 164.705Z" fill="#C7C7C7"/>
<path d="M234.591 167.907L276.118 167.812L317.646 167.907L276.118 168.007L234.591 167.907Z" fill="#C7C7C7"/>
<path d="M234.591 171.11L276.118 171.016L317.646 171.11L276.118 171.211L234.591 171.11Z" fill="#C7C7C7"/>
<path d="M249.672 161.401H243.371V174.846H249.672V161.401Z" fill="url(#paint7_linear_378_6974)"/>
<path d="M261.355 154.235H255.054V174.848H261.355V154.235Z" fill="url(#paint8_linear_378_6974)"/>
<path d="M273.038 146.203H266.737V174.847H273.038V146.203Z" fill="url(#paint9_linear_378_6974)"/>
<path d="M284.728 142.756H278.427V174.847H284.728V142.756Z" fill="url(#paint10_linear_378_6974)"/>
<path d="M296.411 136.613H290.11V174.847H296.411V136.613Z" fill="url(#paint11_linear_378_6974)"/>
<path d="M308.094 130.542H301.793V174.847H308.094V130.542Z" fill="url(#paint12_linear_378_6974)"/>
<path d="M236.84 124.021L237.005 136.724L237.117 149.434C237.193 157.905 237.217 166.376 237.234 174.847L236.84 174.479H257.044L277.243 174.524L297.447 174.646L317.646 174.864L297.447 175.081L277.243 175.203L257.044 175.248H236.84H236.451V174.88C236.451 166.409 236.487 157.938 236.563 149.467L236.681 136.758L236.84 124.021Z" fill="#C7C7C7"/>
<path d="M249.672 177.531H243.371V178.071H249.672V177.531Z" fill="#C7C7C7"/>
<path d="M261.355 177.531H255.054V178.071H261.355V177.531Z" fill="#C7C7C7"/>
<path d="M273.038 177.531H266.737V178.071H273.038V177.531Z" fill="#C7C7C7"/>
<path d="M284.728 177.531H278.427V178.071H284.728V177.531Z" fill="#C7C7C7"/>
<path d="M296.411 177.531H290.11V178.071H296.411V177.531Z" fill="#C7C7C7"/>
<path d="M308.094 177.531H301.793V178.071H308.094V177.531Z" fill="#C7C7C7"/>
<path d="M244.083 163.1C247.16 163.055 250.232 162.834 253.281 162.437C256.328 162.069 259.353 161.554 262.344 160.895C268.332 159.62 274.141 157.686 279.651 155.13C285.175 152.613 290.27 149.33 294.768 145.389L295.622 144.66L296.428 143.886L298.036 142.332C299.025 141.218 300.091 140.182 300.98 138.99C302.886 136.7 304.61 134.28 306.139 131.75H306.192C303.409 136.992 299.707 141.75 295.245 145.824C293.019 147.872 290.612 149.735 288.049 151.393C285.5 153.068 282.821 154.557 280.034 155.849C268.824 160.927 256.497 163.409 244.071 163.089L244.083 163.1Z" fill="#263238"/>
<path d="M307.935 135.928L307.064 136.134L305.992 132.068L301.782 133.377L301.505 132.569L306.628 130.977L307.935 135.928Z" fill="#263238"/>
<path d="M232.812 198.148H319.424V194.835H232.812V198.148Z" fill="#DBDBDB"/>
<path d="M232.818 206.515H281.577V203.201H232.818V206.515Z" fill="#DBDBDB"/>
<path d="M251.739 116.257H300.498V112.943H251.739V116.257Z" fill="#DBDBDB"/>
<path d="M309.06 220.849L202.738 220.799L202.809 91.7227L281.748 91.7616L309.113 116.367L309.06 220.849Z" fill="url(#paint13_linear_378_6974)"/>
<path opacity="0.6" d="M309.06 220.849L202.738 220.799L202.809 91.7227L281.748 91.7616L309.113 116.367L309.06 220.849Z" fill="white"/>
<path d="M281.748 91.7627L309.113 116.368L281.736 116.357L281.748 91.7627Z" fill="url(#paint14_linear_378_6974)"/>
<path opacity="0.4" d="M281.748 91.7627L309.113 116.368L281.736 116.357L281.748 91.7627Z" fill="white"/>
<path d="M213.108 116.847H272.22V113.533H213.108V116.847Z" fill="white"/>
<path d="M213.17 125.062L272.281 125.091L272.283 121.777L213.172 121.748L213.17 125.062Z" fill="white"/>
<path d="M213.157 133.427L272.269 133.456L272.27 130.142L213.159 130.113L213.157 133.427Z" fill="white"/>
<path d="M213.15 141.79L299.762 141.833L299.764 138.519L213.152 138.476L213.15 141.79Z" fill="white"/>
<path d="M213.149 150.16L299.761 150.203L299.763 146.889L213.151 146.846L213.149 150.16Z" fill="white"/>
<path d="M213.148 158.525L299.76 158.568L299.762 155.255L213.15 155.212L213.148 158.525Z" fill="white"/>
<path d="M213.14 166.892L299.752 166.935L299.754 163.621L213.142 163.578L213.14 166.892Z" fill="white"/>
<path d="M213.133 175.256L299.745 175.299L299.747 171.985L213.135 171.942L213.133 175.256Z" fill="white"/>
<path d="M213.132 183.627L299.744 183.67L299.746 180.356L213.134 180.313L213.132 183.627Z" fill="white"/>
<path d="M213.13 191.991L299.742 192.034L299.744 188.72L213.132 188.677L213.13 191.991Z" fill="white"/>
<path d="M213.123 200.353L299.735 200.396L299.737 197.082L213.125 197.039L213.123 200.353Z" fill="white"/>
<path d="M213.116 208.717L299.729 208.76L299.73 205.446L213.118 205.403L213.116 208.717Z" fill="white"/>
<path d="M177.693 247.394H341.166L352.413 155.728H188.941L177.693 247.394Z" fill="url(#paint15_linear_378_6974)"/>
<path d="M302.059 146.231H353.58L352.414 155.727H297.937L302.059 146.231Z" fill="url(#paint16_linear_378_6974)"/>
<path d="M329.359 118.122C327.476 116.543 326.17 114.441 325.625 112.118C324.993 109.286 325.519 106.333 327.098 103.853C327.862 102.615 328.888 101.539 330.11 100.693C331.333 99.8455 332.727 99.2455 334.205 98.9295L350.317 95.5879L350.77 97.5595L334.665 100.901C333.47 101.158 332.345 101.644 331.358 102.33C330.371 103.017 329.544 103.887 328.929 104.889C327.637 106.929 327.204 109.355 327.716 111.683C328.835 116.512 333.905 119.742 338.787 118.734L369.291 112.419C371.192 112.025 372.85 110.933 373.901 109.383C374.951 107.833 375.307 105.952 374.891 104.154C374.475 102.355 373.32 100.787 371.681 99.7936C370.042 98.8004 368.053 98.4635 366.152 98.8571L336.649 104.983C335.202 105.258 333.916 106.033 333.039 107.156C332.633 107.695 332.354 108.311 332.22 108.961C332.086 109.612 332.1 110.281 332.262 110.926C332.91 113.711 335.683 115.248 338.869 114.591L364.238 109.339L364.697 111.316L339.329 116.562C335 117.459 331.084 115.22 330.172 111.355C329.259 107.49 331.868 103.903 336.19 103.001L365.699 96.8744C368.133 96.4181 370.66 96.8829 372.737 98.1692C374.813 99.4555 376.273 101.461 376.804 103.754C377.334 106.047 376.892 108.446 375.574 110.434C374.255 112.423 372.164 113.843 369.75 114.39L339.246 120.706C337.499 121.042 335.693 120.983 333.975 120.534C332.257 120.085 330.675 119.258 329.359 118.122Z" fill="#455A64"/>
<path d="M318.435 92.6581C316.426 94.09 313.99 94.8852 311.474 94.9304C308.412 94.9565 305.453 93.8838 303.195 91.9285C302.062 90.9755 301.15 89.8121 300.515 88.5108C299.88 87.2094 299.535 85.7982 299.502 84.3652L299.231 68.7709L301.369 68.7375L301.64 84.3318C301.668 85.4888 301.949 86.6277 302.465 87.6772C302.981 88.7266 303.72 89.6639 304.637 90.4303C306.491 92.0401 308.922 92.9239 311.439 92.9031C316.668 92.8196 321.02 88.7595 320.937 84.0311L320.425 54.5132C320.394 52.6728 319.591 50.9194 318.193 49.6389C316.795 48.3584 314.916 47.6556 312.97 47.6851C311.024 47.7147 309.17 48.4741 307.816 49.7964C306.462 51.1187 305.719 52.8955 305.75 54.736L306.239 83.3015C306.238 84.6954 306.786 86.0397 307.776 87.0719C308.255 87.5551 308.837 87.9358 309.484 88.1884C310.131 88.4411 310.828 88.5598 311.527 88.5367C314.542 88.4922 316.686 86.2198 316.633 83.14L316.209 58.5789L318.352 58.5455L318.77 83.1065C318.847 87.2892 315.744 90.4971 311.563 90.5584C307.382 90.6197 304.178 87.5175 304.101 83.3182L303.613 54.7583C303.568 53.5672 303.776 52.3796 304.222 51.2652C304.669 50.1507 305.346 49.1316 306.214 48.2675C307.082 47.4034 308.123 46.7116 309.277 46.2326C310.431 45.7536 311.675 45.497 312.935 45.4777C314.195 45.4585 315.446 45.677 316.616 46.1205C317.785 46.564 318.85 47.2236 319.747 48.0608C320.644 48.8979 321.356 49.8958 321.84 50.996C322.325 52.0963 322.572 53.2768 322.569 54.4687L323.075 83.9865C323.081 85.6758 322.663 87.3424 321.857 88.8497C321.05 90.357 319.877 91.6621 318.435 92.6581Z" fill="#263238"/>
<path d="M65.1002 73.4823C64.0873 78.9849 61.8967 85.4231 63.6692 90.9646C65.0649 95.3032 68.7807 98.5557 72.7733 100.839C81.5593 105.852 94.5205 107.94 102.217 99.9871C105.291 96.8069 106.716 89.589 102.759 86.4089C100.721 84.777 98.1244 84.1421 95.6924 83.2009C94.1756 82.6663 92.8056 81.8154 91.6842 80.7114C90.5628 79.6074 89.7187 78.2787 89.2147 76.8239C86.9888 70.7923 88.1489 66.7043 88.4021 60.5C88.4687 59.8856 88.3983 59.2647 88.1954 58.6776C87.9925 58.0905 87.6617 57.5502 87.2243 57.0915C86.2937 55.9717 85.0579 55.1129 83.6498 54.6076C82.4815 53.94 81.1561 53.5573 79.7927 53.4937C76.8777 53.4269 73.7803 55.6045 71.3482 56.8966C68.9161 58.1887 67.6265 59.7314 67.0965 62.3825C66.4016 66.0861 65.7715 69.7898 65.1002 73.4823Z" fill="#263238"/>
<path d="M64.0054 75.9987C65.2774 70.9862 66.6436 66.0628 67.9803 61.0949C67.9803 61.0615 68.0392 61.0949 68.0333 61.0949C67.0617 65.2107 66.143 69.3377 65.089 73.4479C64.0761 77.469 62.7334 81.5402 62.1092 85.6393C60.6842 94.8288 70.1945 99.7856 78.5389 100.337C78.9217 100.337 78.8334 100.927 78.4506 100.894C71.1426 100.192 62.7629 96.7892 61.5734 89.0366C60.9668 84.8039 62.9867 80.0755 64.0054 75.9987Z" fill="#263238"/>
<path d="M88.0139 59.9588C88.0139 59.9382 88.0226 59.9183 88.0381 59.9037C88.0535 59.8891 88.0745 59.8809 88.0964 59.8809C88.1182 59.8809 88.1392 59.8891 88.1546 59.9037C88.1701 59.9183 88.1788 59.9382 88.1788 59.9588C87.7371 65.0548 86.7184 70.9584 89.174 75.7425C90.3856 78.0954 92.3214 80.0466 94.7271 81.3398C96.6351 82.359 98.7609 82.682 100.81 83.3281C108.831 85.8454 107.494 96.3605 100.963 99.7355C100.828 99.8079 100.692 99.5851 100.828 99.5072C105.462 96.845 107.624 91.2477 104.767 86.6084C102.471 82.8769 97.0355 83.3169 93.5317 81.039C86.2649 76.2995 86.8597 67.2993 88.0139 59.9588Z" fill="#263238"/>
<path d="M117.711 245.376C116.398 245.777 79.0864 245.321 77.6672 244.446C77.1255 244.123 76.8781 238.977 76.7662 232.751V232.556C76.7662 231.275 76.725 229.955 76.725 228.613C76.725 228.429 76.725 228.245 76.725 228.056C76.672 219.072 76.8251 209.749 76.8251 209.749L101.788 209.983L101.034 228.122V228.841L100.887 232.595V232.979C100.887 232.979 115.09 239.194 116.533 240.308C117.976 241.422 119.018 244.981 117.711 245.376Z" fill="#FFFDFA"/>
<path d="M106.498 235.396C106.398 235.396 106.345 235.345 106.339 235.317L106.498 235.396Z" fill="url(#paint17_linear_378_6974)"/>
<path d="M117.704 245.376C116.397 245.777 79.0856 245.321 77.6605 244.446C77.1835 244.162 76.9303 240.063 76.8066 234.783C83.6435 236.131 110.143 241.199 110.867 239.061C111.156 238.214 108.889 236.76 107.452 235.936C111.368 237.702 115.696 239.723 116.473 240.314C117.91 241.422 119.017 244.981 117.704 245.376Z" fill="url(#paint18_linear_378_6974)"/>
<path d="M69.1641 108.091C69.1641 108.091 74.7702 167.728 75.6829 172.278C75.8949 173.314 76.0245 178.961 76.1128 186.202C76.3071 202.008 76.1894 230.523 76.1894 230.523H102.495C102.495 230.523 101.711 181.122 100.545 172.044C99.3794 162.966 91.9418 108.113 91.9418 108.113L69.1641 108.091Z" fill="#37474F"/>
<path d="M101.304 226.178C97.1822 226.1 98.36 226.067 94.2732 226.028C92.2651 226.028 79.0625 225.905 77.1958 226.195C77.1867 226.198 77.179 226.204 77.1735 226.211C77.168 226.219 77.165 226.227 77.165 226.237C77.165 226.246 77.168 226.255 77.1735 226.262C77.179 226.269 77.1867 226.275 77.1958 226.278C79.0684 226.568 92.271 226.462 94.2732 226.445C98.3953 226.406 97.2176 226.373 101.304 226.295C101.318 226.291 101.329 226.283 101.337 226.273C101.345 226.262 101.35 226.25 101.35 226.237C101.35 226.223 101.345 226.211 101.337 226.2C101.329 226.19 101.318 226.182 101.304 226.178Z" fill="#263238"/>
<path d="M81.1882 197.942L81.0823 187.132C81.0823 183.64 81.0822 180.142 80.8879 176.65C80.5287 169.577 79.0153 162.626 77.9435 155.637C76.8718 148.647 75.9708 141.63 75.1523 134.601C74.2395 126.72 73.4327 118.828 72.573 110.942C72.573 110.886 72.4788 110.886 72.4846 110.942C73.7272 125.027 75.111 139.107 77.1957 153.103C77.7099 156.585 78.2694 160.061 78.874 163.528C79.4628 167.037 80.0988 170.551 80.3933 174.11C80.6877 177.669 80.723 181.072 80.7643 184.553C80.7996 188.162 80.8369 191.769 80.8761 195.374C80.9586 203.383 81.041 215.708 81.1235 223.723C81.1235 223.873 81.3767 223.867 81.3767 223.723C81.3001 216.549 81.2412 205.087 81.1882 197.942Z" fill="#263238"/>
<path d="M63.6221 108.091C63.6221 108.091 74.7695 167.728 75.6823 172.278C75.8943 173.314 76.0238 178.962 76.1121 186.202L88.6435 108.074L63.6221 108.091Z" fill="#263238"/>
<path d="M55.5013 247.38C54.1469 247.18 21.0697 230.834 20.2335 229.452C19.9037 228.934 22.1414 224.239 25.0152 218.637L25.1094 218.458C25.6982 217.305 37.5111 198.47 37.5111 198.47L57.8509 209.764L46.5681 228.784L46.3737 229.118C46.3737 229.118 56.0725 240.736 56.8263 242.34C57.5801 243.944 56.8616 247.592 55.5013 247.38Z" fill="#FFFDFA"/>
<path d="M55.5016 247.38C54.1413 247.18 21.0758 230.834 20.2337 229.453C19.951 229.013 21.541 225.515 23.8023 221.021C28.5133 224.412 51.4324 240.669 53.1048 238.982C53.4582 238.62 53.1932 237.779 52.728 236.877C54.736 239.383 56.5203 241.683 56.8501 242.34C57.5744 243.939 56.8619 247.587 55.5016 247.38Z" fill="url(#paint19_linear_378_6974)"/>
<path d="M49.4953 228.089L25.3926 214.004C25.3926 214.004 53.2759 176.266 53.4114 172.913C53.6057 167.901 56.132 147.361 58.2578 130.708C58.2578 130.708 54.2299 121.691 61.7616 108.074H91.9651C91.9651 108.074 89.9394 121.034 86.4709 129.238C84.1439 130.008 81.8967 130.98 79.7577 132.14C79.7577 132.14 76.7545 169.271 76.6426 173.91C76.4188 183.066 49.4953 228.089 49.4953 228.089Z" fill="#37474F"/>
<path d="M50.9731 222.826C47.4929 220.765 48.5234 221.311 45.0196 219.284C43.306 218.292 32.0643 211.787 30.2977 211.13C30.2884 211.126 30.2781 211.126 30.2685 211.129C30.259 211.132 30.2509 211.138 30.2458 211.146C30.2408 211.155 30.2391 211.164 30.241 211.174C30.243 211.183 30.2485 211.191 30.2564 211.197C31.7051 212.361 43.094 218.677 44.8253 219.635C48.3585 221.601 47.3751 220.999 50.9378 222.921C50.9488 222.919 50.9593 222.915 50.968 222.909C50.9767 222.902 50.9833 222.894 50.987 222.884C50.9907 222.874 50.9913 222.863 50.9889 222.853C50.9864 222.843 50.981 222.833 50.9731 222.826Z" fill="#263238"/>
<path d="M87.6188 128.687C84.8969 129.623 82.2665 130.782 79.7572 132.151C79.7373 132.161 79.7222 132.178 79.7152 132.199C79.7082 132.219 79.7098 132.241 79.7197 132.26C79.7295 132.28 79.7469 132.295 79.7681 132.302C79.7894 132.31 79.8129 132.31 79.8338 132.301C82.4779 131.226 85.1808 130.196 87.7601 128.959C87.7815 128.935 87.795 128.905 87.7989 128.873C87.8028 128.841 87.797 128.809 87.7821 128.78C87.7672 128.751 87.7439 128.727 87.7149 128.711C87.686 128.694 87.6526 128.686 87.6188 128.687Z" fill="#263238"/>
<path d="M83.921 124.547C84.1801 123.055 84.3921 121.562 84.5099 120.053C84.7848 117.246 84.7533 114.421 84.4157 111.621C84.4157 111.601 84.4076 111.583 84.3933 111.569C84.3789 111.556 84.3594 111.548 84.3391 111.548C84.3188 111.548 84.2994 111.556 84.285 111.569C84.2706 111.583 84.2626 111.601 84.2626 111.621C84.3308 115.514 84.0886 119.407 83.5383 123.266C83.2438 125.115 82.2545 127.911 84.3097 128.195C86.3649 128.479 87.7487 123.812 88.0019 122.531C88.6551 118.887 88.8035 115.178 88.4436 111.498C88.4436 111.409 88.2728 111.392 88.2787 111.498C88.2787 114.472 88.0962 117.067 87.8312 119.852C87.7075 121.139 86.6122 128.273 84.2449 127.75C83.8504 127.666 83.656 127.293 83.5854 126.73C83.5956 125.991 83.7024 125.256 83.9034 124.542" fill="#263238"/>
<path d="M84.3275 127.951C84.1184 128.432 83.9414 128.925 83.7975 129.427C83.6421 129.815 83.5661 130.227 83.5738 130.641C83.5781 130.657 83.5871 130.672 83.5998 130.683C83.6124 130.695 83.6282 130.703 83.6453 130.706C83.6624 130.709 83.6802 130.708 83.6967 130.703C83.7132 130.697 83.7277 130.687 83.7386 130.674C83.9839 130.31 84.1686 129.911 84.2863 129.494C84.4689 129.037 84.6573 128.58 84.8222 128.118C84.8355 128.059 84.8256 127.997 84.7943 127.944C84.7631 127.891 84.7125 127.85 84.6521 127.83C84.5917 127.81 84.5255 127.811 84.4658 127.833C84.4061 127.855 84.357 127.897 84.3275 127.951Z" fill="#263238"/>
<path d="M65.3124 109.873C64.3943 111.365 63.6348 112.94 63.0452 114.574C62.4397 116.203 61.9904 117.881 61.7026 119.586C61.5318 120.433 61.4729 121.29 61.3728 122.142C61.2727 122.995 61.2609 123.863 61.3139 124.721C61.3526 126.438 61.5636 128.149 61.944 129.828V129.884C61.2492 137.087 60.5268 144.286 59.777 151.482C59.0271 158.678 58.2773 165.875 57.5275 173.075L57.4509 173.749L57.4156 174.088C57.4148 174.212 57.3888 174.335 57.339 174.45C57.1358 174.881 56.9058 175.299 56.65 175.703C56.1671 176.489 55.6666 177.263 55.1661 178.031C54.165 179.572 53.1501 181.106 52.1216 182.632C50.0723 185.684 47.9994 188.714 45.8971 191.743C41.7338 197.808 37.4939 203.829 33.248 209.844L45.5732 191.543L51.6917 182.376C52.7124 180.846 53.7213 179.312 54.7185 177.775C55.2132 177.001 55.7078 176.227 56.1848 175.447C56.4086 175.068 56.6677 174.645 56.8208 174.333C56.8595 174.239 56.8795 174.139 56.8797 174.038L56.915 173.698L56.9857 173.025C57.708 165.829 58.4579 158.635 59.2352 151.443C60.0125 144.251 60.7977 137.061 61.5907 129.873V129.923C61.2186 128.22 61.0214 126.488 61.0018 124.749C60.9606 123.88 61.0489 123.011 61.0961 122.148C61.1432 121.285 61.2904 120.421 61.4847 119.569C61.8116 117.861 62.2983 116.184 62.9392 114.557C63.5672 112.926 64.362 111.358 65.3124 109.873Z" fill="#263238"/>
<path d="M79.905 82.2593C84.3981 84.5483 105.227 90.6134 112.599 90.3349C119.495 90.0954 134.623 82.3985 135.336 80.31C136.019 78.3329 132.174 66.1526 129.912 66.7708C127.651 67.389 114.184 76.6175 111.221 76.9906C109.455 77.2078 92.8191 76.6955 84.2921 76.9906C76.5484 77.2468 73.6865 79.0847 79.905 82.2593Z" fill="#FFFDFA"/>
<path d="M92.2714 87.8402L98.9905 76.1445C98.9905 76.1445 83.5207 75.9161 78.9686 77.0634C73.8277 78.3555 75.6474 80.561 79.9992 82.9949C84.351 85.4287 92.2714 87.8402 92.2714 87.8402Z" fill="url(#paint20_linear_378_6974)"/>
<path d="M83.0317 76.9793C83.0317 77.2451 82.92 77.5001 82.7212 77.6881C82.5224 77.8761 82.2528 77.9818 81.9717 77.9818C81.6906 77.9818 81.421 77.8761 81.2222 77.6881C81.0234 77.5001 80.9117 77.2451 80.9117 76.9793C80.9101 76.8941 80.9241 76.8093 80.9529 76.7286C81.5418 76.6507 82.2131 76.5838 82.9139 76.5281C82.9922 76.6669 83.0327 76.822 83.0317 76.9793ZM89.368 76.2163C89.2368 76.3273 89.1369 76.4675 89.0773 76.6242C89.0177 76.781 89.0004 76.9493 89.0268 77.1139C89.0533 77.2786 89.1227 77.4344 89.2288 77.5673C89.3349 77.7002 89.4743 77.8061 89.6345 77.8753C89.7947 77.9444 89.9705 77.9748 90.1462 77.9636C90.3219 77.9523 90.4919 77.8999 90.6408 77.811C90.7897 77.722 90.9128 77.5994 90.999 77.4542C91.0852 77.309 91.1318 77.1458 91.1346 76.9793C91.1356 76.8243 91.0976 76.6713 91.0239 76.5328C90.9502 76.3944 90.8429 76.2744 90.7106 76.1828L89.368 76.2163ZM98.7076 76.1494H97.5298C97.3817 76.2392 97.2598 76.3627 97.1754 76.5087C97.091 76.6547 97.0469 76.8184 97.047 76.9848C97.0462 77.2222 97.1346 77.4522 97.2964 77.6337C97.4581 77.8153 97.6828 77.9366 97.9303 77.9762L98.8843 76.3054C98.8354 76.2441 98.7756 76.1913 98.7076 76.1494ZM78.25 81.9639C78.4149 82.0697 78.568 82.1811 78.7447 82.2758C78.6172 82.1266 78.4446 82.0177 78.25 81.9639ZM86.0055 81.9138C85.7961 81.9149 85.5918 81.9746 85.4182 82.0854C85.2447 82.1962 85.1098 82.3532 85.0304 82.5365C84.9511 82.7197 84.931 82.9211 84.9725 83.1152C85.0141 83.3093 85.1155 83.4874 85.264 83.6271C85.4124 83.7667 85.6013 83.8616 85.8068 83.8999C86.0122 83.9381 86.225 83.9179 86.4184 83.8419C86.6117 83.7658 86.7769 83.6374 86.8931 83.4726C87.0094 83.3079 87.0714 83.1143 87.0714 82.9162C87.0698 82.6499 86.9568 82.3949 86.7571 82.207C86.5574 82.0192 86.2872 81.9137 86.0055 81.9138ZM94.079 81.9138C93.8694 81.9138 93.6644 81.9725 93.4901 82.0827C93.3158 82.1929 93.1799 82.3494 93.0997 82.5326C93.0195 82.7158 92.9985 82.9174 93.0394 83.1118C93.0803 83.3063 93.1813 83.4849 93.3295 83.6251C93.4777 83.7653 93.6666 83.8608 93.8722 83.8995C94.0778 83.9382 94.291 83.9183 94.4847 83.8424C94.6783 83.7665 94.8439 83.6381 94.9604 83.4732C95.0768 83.3083 95.139 83.1145 95.139 82.9162C95.139 82.6504 95.0273 82.3954 94.8285 82.2074C94.6297 82.0194 94.3601 81.9138 94.079 81.9138Z" fill="white"/>
<path d="M95.8396 76.6686C95.5393 77.0417 93.384 80.6507 92.9364 81.4471C92.4889 82.2436 90.6104 85.4738 90.2158 86.3315C90.2158 86.3649 90.2512 86.3983 90.2747 86.3649C90.8283 85.5963 92.7303 82.3382 93.2191 81.5418C93.7079 80.7454 95.7454 77.1197 95.9103 76.6964C95.9103 76.6574 95.8573 76.6463 95.8396 76.6686Z" fill="#263238"/>
<path opacity="0.1" d="M94.3552 84.1978L92.2706 87.8402C92.2706 87.8402 84.3325 85.4398 79.9807 83.0059C76.3533 80.9731 74.4865 79.1073 76.9421 77.793L94.3552 84.1978Z" fill="black"/>
<path d="M91.3937 102.855L92.3064 109.589L61.4434 108.67C61.4434 108.67 63.0039 87.1553 71.8959 79.0407C76.3478 74.9862 81.2296 75.5821 84.174 78.7567C84.916 79.5642 93.6667 90.3744 94.3734 94.9414C94.9917 98.968 91.3937 102.855 91.3937 102.855Z" fill="url(#paint21_linear_378_6974)"/>
<path d="M74.9643 76.9798C74.9643 77.2462 74.8528 77.5017 74.6542 77.6906C74.4556 77.8795 74.186 77.9864 73.9043 77.9878C73.7265 77.9884 73.5517 77.9442 73.3979 77.8597C73.8896 77.5205 74.4141 77.2259 74.9643 76.9798ZM80.9826 76.6289C80.9355 76.7405 80.9115 76.8596 80.912 76.9798C80.912 77.2462 81.0235 77.5017 81.2221 77.6906C81.4207 77.8795 81.6903 77.9864 81.9719 77.9878C82.138 77.9893 82.302 77.9525 82.4497 77.8807C82.5974 77.8089 82.7245 77.7043 82.8199 77.5757C82.2576 77.1799 81.6391 76.8612 80.9826 76.6289ZM66.2607 87.7343C65.9957 88.3525 65.7484 88.9818 65.5187 89.6112C65.626 89.6494 65.7398 89.6683 65.8544 89.6669C65.9941 89.6669 66.1324 89.6408 66.2614 89.59C66.3904 89.5393 66.5075 89.465 66.606 89.3713C66.7045 89.2776 66.7824 89.1664 66.8354 89.0442C66.8883 88.9219 66.9151 88.7909 66.9144 88.6588C66.9138 88.458 66.8487 88.262 66.7278 88.0969C66.6069 87.9318 66.4358 87.8054 66.2371 87.7343H66.2607ZM73.9161 87.6563C73.7048 87.6552 73.4979 87.7136 73.3217 87.8239C73.1456 87.9342 73.008 88.0916 72.9266 88.276C72.8452 88.4605 72.8236 88.6636 72.8646 88.8597C72.9055 89.0557 73.0071 89.2359 73.1566 89.3772C73.306 89.5185 73.4964 89.6146 73.7037 89.6533C73.911 89.6921 74.1258 89.6716 74.3208 89.5946C74.5158 89.5177 74.6822 89.3876 74.7989 89.221C74.9156 89.0543 74.9773 88.8587 74.9761 88.6588C74.9753 88.5264 74.947 88.3955 74.8927 88.2735C74.8384 88.1514 74.7593 88.0407 74.6597 87.9476C74.5602 87.8545 74.4423 87.7809 74.3127 87.7309C74.1831 87.6809 74.0443 87.6556 73.9043 87.6563H73.9161ZM81.9837 87.6563C81.7724 87.6552 81.5655 87.7136 81.3894 87.8239C81.2132 87.9342 81.0756 88.0916 80.9942 88.276C80.9128 88.4605 80.8912 88.6636 80.9322 88.8597C80.9731 89.0557 81.0748 89.2359 81.2242 89.3772C81.3736 89.5185 81.564 89.6146 81.7714 89.6533C81.9787 89.6921 82.1935 89.6716 82.3885 89.5946C82.5835 89.5177 82.7499 89.3876 82.8665 89.221C82.9832 89.0543 83.0449 88.8587 83.0437 88.6588C83.0429 88.5264 83.0146 88.3955 82.9603 88.2735C82.906 88.1514 82.8269 88.0407 82.7274 87.9476C82.6278 87.8545 82.5099 87.7809 82.3803 87.7309C82.2507 87.6809 82.1119 87.6556 81.9719 87.6563H81.9837ZM90.0572 87.6563C89.8459 87.6552 89.639 87.7136 89.4629 87.8239C89.2867 87.9342 89.1492 88.0916 89.0678 88.276C88.9864 88.4605 88.9647 88.6636 89.0057 88.8597C89.0466 89.0557 89.1483 89.2359 89.2977 89.3772C89.4471 89.5185 89.6376 89.6146 89.8449 89.6533C90.0522 89.6921 90.267 89.6716 90.462 89.5946C90.657 89.5177 90.8234 89.3876 90.94 89.221C91.0567 89.0543 91.1184 88.8587 91.1172 88.6588C91.1172 88.5262 91.0894 88.395 91.0354 88.2726C90.9814 88.1502 90.9023 88.0392 90.8026 87.946C90.7029 87.8527 90.5847 87.7791 90.4547 87.7294C90.3247 87.6797 90.1856 87.6549 90.0455 87.6563H90.0572ZM69.8941 81.9143C69.6836 81.9126 69.4778 81.9729 69.3052 82.0869C69.1521 82.2986 69.0108 82.5046 68.8694 82.7274C68.8636 82.783 68.8636 82.8389 68.8694 82.8945C68.8694 83.0928 68.9316 83.2866 69.0481 83.4514C69.1645 83.6163 69.3301 83.7448 69.5238 83.8207C69.7175 83.8966 69.9306 83.9164 70.1362 83.8777C70.3418 83.839 70.5307 83.7436 70.6789 83.6034C70.8272 83.4632 70.9281 83.2845 70.969 83.0901C71.0099 82.8956 70.9889 82.694 70.9087 82.5108C70.8285 82.3277 70.6926 82.1711 70.5183 82.0609C70.344 81.9508 70.1391 81.892 69.9294 81.892L69.8941 81.9143ZM77.9676 81.9143C77.7579 81.9143 77.553 81.9731 77.3787 82.0832C77.2044 82.1934 77.0685 82.35 76.9883 82.5331C76.9081 82.7163 76.8871 82.9179 76.928 83.1123C76.9689 83.3068 77.0698 83.4854 77.2181 83.6256C77.3663 83.7658 77.5552 83.8613 77.7608 83.9C77.9664 83.9387 78.1795 83.9188 78.3732 83.8429C78.5669 83.7671 78.7325 83.6386 78.8489 83.4737C78.9654 83.3089 79.0276 83.115 79.0276 82.9168C79.0276 82.7827 78.9993 82.6501 78.9442 82.5266C78.8891 82.4031 78.8083 82.2913 78.7068 82.1979C78.6052 82.1044 78.4848 82.0311 78.3528 81.9824C78.2208 81.9337 78.0798 81.9106 77.9381 81.9143H77.9676ZM86.0352 81.9143C85.8258 81.9154 85.6215 81.9751 85.4479 82.0859C85.2744 82.1967 85.1394 82.3537 85.0601 82.537C84.9808 82.7202 84.9606 82.9216 85.0022 83.1157C85.0438 83.3098 85.1452 83.4879 85.2937 83.6276C85.4421 83.7672 85.631 83.8621 85.8365 83.9004C86.0419 83.9386 86.2547 83.9184 86.4481 83.8424C86.6414 83.7664 86.8066 83.6379 86.9228 83.4731C87.039 83.3084 87.1011 83.1148 87.1011 82.9168C87.1003 82.7825 87.0712 82.6497 87.0155 82.5262C86.9598 82.4027 86.8785 82.2909 86.7764 82.1976C86.6744 82.1042 86.5537 82.031 86.4213 81.9824C86.289 81.9337 86.1477 81.9106 86.0058 81.9143H86.0352ZM65.8308 99.3354C65.6198 99.3343 65.4131 99.3925 65.2371 99.5025C65.061 99.6126 64.9235 99.7697 64.8419 99.9538C64.7603 100.138 64.7384 100.341 64.7788 100.537C64.8193 100.733 64.9203 100.913 65.0692 101.054C65.218 101.196 65.4079 101.292 65.6148 101.332C65.8217 101.371 66.0364 101.351 66.2315 101.275C66.4266 101.199 66.5934 101.07 66.7108 100.904C66.8281 100.738 66.8908 100.543 66.8908 100.343C66.8908 100.077 66.7793 99.8215 66.5807 99.6326C66.3821 99.4437 66.1125 99.3368 65.8308 99.3354ZM73.9043 99.3354C73.6933 99.3343 73.4866 99.3925 73.3106 99.5025C73.1345 99.6126 72.997 99.7697 72.9154 99.9538C72.8338 100.138 72.8119 100.341 72.8523 100.537C72.8928 100.733 72.9939 100.913 73.1427 101.054C73.2915 101.196 73.4814 101.292 73.6883 101.332C73.8952 101.371 74.1099 101.351 74.305 101.275C74.5001 101.199 74.6669 101.07 74.7843 100.904C74.9016 100.738 74.9643 100.543 74.9643 100.343C74.9643 100.077 74.8528 99.8215 74.6542 99.6326C74.4556 99.4437 74.186 99.3368 73.9043 99.3354ZM81.9719 99.3354C81.7609 99.3343 81.5542 99.3925 81.3782 99.5025C81.2021 99.6126 81.0646 99.7697 80.983 99.9538C80.9014 100.138 80.8795 100.341 80.92 100.537C80.9604 100.733 81.0615 100.913 81.2103 101.054C81.3591 101.196 81.549 101.292 81.7559 101.332C81.9629 101.371 82.1775 101.351 82.3726 101.275C82.5677 101.199 82.7345 101.07 82.8519 100.904C82.9693 100.738 83.0319 100.543 83.0319 100.343C83.0319 100.077 82.9204 99.8215 82.7218 99.6326C82.5232 99.4437 82.2536 99.3368 81.9719 99.3354ZM90.0455 99.3354C89.8344 99.3343 89.6277 99.3925 89.4517 99.5025C89.2756 99.6126 89.1381 99.7697 89.0565 99.9538C88.975 100.138 88.953 100.341 88.9935 100.537C89.0339 100.733 89.135 100.913 89.2838 101.054C89.4326 101.196 89.6225 101.292 89.8295 101.332C90.0364 101.371 90.251 101.351 90.4461 101.275C90.6412 101.199 90.808 101.07 90.9254 100.904C91.0428 100.738 91.1054 100.543 91.1054 100.343C91.1062 100.211 91.0794 100.08 91.0264 99.9581C90.9735 99.8358 90.8956 99.7246 90.7971 99.631C90.6986 99.5373 90.5814 99.4629 90.4525 99.4122C90.3235 99.3615 90.1852 99.3354 90.0455 99.3354ZM69.8941 93.5933C69.6847 93.5944 69.4803 93.6541 69.3068 93.765C69.1333 93.8758 68.9983 94.0327 68.919 94.216C68.8397 94.3993 68.8195 94.6007 68.8611 94.7948C68.9026 94.9889 69.0041 95.167 69.1525 95.3066C69.301 95.4463 69.4899 95.5412 69.6953 95.5794C69.9008 95.6177 70.1136 95.5975 70.307 95.5214C70.5003 95.4454 70.6655 95.3169 70.7817 95.1522C70.8979 94.9874 70.9599 94.7938 70.9599 94.5958C70.9584 94.3294 70.8454 94.0744 70.6457 93.8866C70.446 93.6988 70.1757 93.5933 69.8941 93.5933ZM77.9676 93.5933C77.7579 93.5933 77.553 93.6521 77.3787 93.7623C77.2044 93.8724 77.0685 94.029 76.9883 94.2122C76.9081 94.3953 76.8871 94.5969 76.928 94.7914C76.9689 94.9858 77.0698 95.1645 77.2181 95.3047C77.3663 95.4449 77.5552 95.5404 77.7608 95.579C77.9664 95.6177 78.1795 95.5979 78.3732 95.522C78.5669 95.4461 78.7325 95.3176 78.8489 95.1528C78.9654 94.9879 79.0276 94.7941 79.0276 94.5958C79.0276 94.4618 78.9993 94.3291 78.9442 94.2056C78.8891 94.0821 78.8083 93.9704 78.7068 93.8769C78.6052 93.7834 78.4848 93.7102 78.3528 93.6615C78.2208 93.6128 78.0798 93.5896 77.9381 93.5933H77.9676ZM86.0352 93.5933C85.8258 93.5944 85.6215 93.6541 85.4479 93.765C85.2744 93.8758 85.1394 94.0327 85.0601 94.216C84.9808 94.3993 84.9606 94.6007 85.0022 94.7948C85.0438 94.9889 85.1452 95.167 85.2937 95.3066C85.4421 95.4463 85.631 95.5412 85.8365 95.5794C86.0419 95.6177 86.2547 95.5975 86.4481 95.5214C86.6414 95.4454 86.8066 95.3169 86.9228 95.1522C87.039 94.9874 87.1011 94.7938 87.1011 94.5958C87.1003 94.4615 87.0712 94.3287 87.0155 94.2052C86.9598 94.0817 86.8785 93.97 86.7764 93.8766C86.6744 93.7832 86.5537 93.71 86.4213 93.6614C86.289 93.6127 86.1477 93.5896 86.0058 93.5933H86.0352ZM94.4031 94.9411C94.3229 94.4845 94.2008 94.0354 94.038 93.5989C93.7705 93.6243 93.5231 93.7449 93.3461 93.9363C93.1691 94.1278 93.0756 94.3757 93.0846 94.6299C93.0935 94.884 93.2043 95.1255 93.3945 95.3053C93.5846 95.4851 93.84 95.5898 94.1087 95.5983C94.2294 95.5978 94.349 95.5771 94.462 95.537C94.4208 95.3421 94.4032 95.1416 94.3737 94.9411H94.4031ZM61.8147 105.261C61.7087 106.041 61.6321 106.709 61.5732 107.244C61.6476 107.252 61.7227 107.252 61.797 107.244C62.0653 107.225 62.316 107.111 62.499 106.924C62.682 106.738 62.7837 106.493 62.7837 106.239C62.7837 105.984 62.682 105.739 62.499 105.553C62.316 105.366 62.0653 105.252 61.797 105.233L61.8147 105.261ZM69.8941 105.261C69.683 105.261 69.4767 105.32 69.3013 105.432C69.1259 105.543 68.9893 105.7 68.9088 105.885C68.8283 106.069 68.8075 106.272 68.8491 106.468C68.8907 106.664 68.9928 106.843 69.1425 106.984C69.2922 107.125 69.4826 107.22 69.6898 107.259C69.8969 107.297 70.1114 107.276 70.3061 107.199C70.5007 107.122 70.6668 106.992 70.7832 106.825C70.8996 106.659 70.9611 106.463 70.9599 106.264C70.9584 105.997 70.8454 105.742 70.6457 105.554C70.446 105.367 70.1757 105.261 69.8941 105.261ZM77.9676 105.261C77.7563 105.26 77.5494 105.318 77.3732 105.429C77.197 105.539 77.0595 105.697 76.9781 105.881C76.8967 106.065 76.8751 106.269 76.916 106.465C76.957 106.661 77.0586 106.841 77.208 106.982C77.3575 107.123 77.5479 107.22 77.7552 107.258C77.9625 107.297 78.1773 107.277 78.3723 107.2C78.5673 107.123 78.7337 106.992 78.8504 106.826C78.9671 106.659 79.0287 106.464 79.0276 106.264C79.0276 106.13 78.9993 105.997 78.9442 105.874C78.8891 105.75 78.8083 105.638 78.7068 105.545C78.6052 105.451 78.4848 105.378 78.3528 105.329C78.2208 105.281 78.0798 105.257 77.9381 105.261H77.9676ZM86.0352 105.261C85.8241 105.261 85.6178 105.32 85.4424 105.432C85.267 105.543 85.1304 105.7 85.0499 105.885C84.9694 106.069 84.9487 106.272 84.9903 106.468C85.0319 106.664 85.134 106.843 85.2836 106.984C85.4333 107.125 85.6237 107.22 85.8309 107.259C86.038 107.297 86.2525 107.276 86.4472 107.199C86.6418 107.122 86.8079 106.992 86.9243 106.825C87.0407 106.659 87.1022 106.463 87.1011 106.264C87.1003 106.129 87.0712 105.997 87.0155 105.873C86.9598 105.75 86.8785 105.638 86.7764 105.544C86.6744 105.451 86.5537 105.378 86.4213 105.329C86.289 105.281 86.1477 105.258 86.0058 105.261H86.0352Z" fill="white"/>
<path d="M86.2761 100.572C84.6279 100.679 82.9903 100.9 81.3766 101.235C80.5758 101.413 79.7926 101.625 79.0211 101.853C78.6325 101.965 78.2379 102.065 77.8434 102.165C77.4319 102.282 77.0065 102.349 76.5773 102.366C76.5695 102.366 76.562 102.369 76.5565 102.374C76.551 102.379 76.5479 102.386 76.5479 102.394C76.5479 102.401 76.551 102.408 76.5565 102.413C76.562 102.419 76.5695 102.421 76.5773 102.421C76.9811 102.449 77.3866 102.449 77.7904 102.421C78.1866 102.383 78.5799 102.322 78.9681 102.238C79.7808 102.065 80.5875 101.853 81.4002 101.681C83.0314 101.319 84.6685 100.951 86.3291 100.701C86.3821 100.689 86.3821 100.567 86.2761 100.572Z" fill="#263238"/>
<path d="M90.3156 102.03C88.9616 101.869 87.5992 101.779 86.2346 101.763C85.5515 101.763 84.8743 101.791 84.1971 101.841C83.8752 101.863 83.5513 101.891 83.2255 101.924C82.8663 101.958 82.5129 102.041 82.1596 102.075C82.1243 102.075 82.1184 102.13 82.1596 102.13C82.4953 102.13 82.8368 102.13 83.1784 102.13H86.2346C87.5949 102.13 88.9494 102.13 90.3156 102.13C90.3862 102.136 90.3803 102.036 90.3156 102.03Z" fill="#263238"/>
<path d="M192.133 80.5501C160.334 73.5178 128.866 66.6173 97.7301 59.8486C86.0232 96.15 89.1796 138.377 72.7617 172.796C104.561 179.828 136.027 186.729 167.159 193.498C178.872 157.196 175.715 114.986 192.133 80.5501Z" fill="#EBEBEB"/>
<path d="M87.5244 158.911C104.798 162.661 121.993 166.374 139.11 170.05C139.34 169.092 139.569 168.129 139.787 167.165C122.706 163.493 105.558 159.793 88.343 156.065C88.078 157.057 87.8071 157.976 87.5244 158.911Z" fill="#DBDBDB"/>
<path d="M89.4971 151.732C106.641 155.445 123.719 159.119 140.729 162.754C140.922 161.781 141.118 160.805 141.318 159.825C124.327 156.193 107.285 152.538 90.192 148.858C89.9682 149.816 89.7385 150.78 89.4971 151.732Z" fill="#DBDBDB"/>
<path d="M91.1758 144.437C108.214 148.098 125.201 151.735 142.137 155.347C142.31 154.363 142.479 153.378 142.644 152.39C125.723 148.781 108.766 145.157 91.7705 141.519C91.5743 142.495 91.376 143.468 91.1758 144.437Z" fill="#DBDBDB"/>
<path d="M92.6064 137.046C117.453 142.355 142.221 147.633 166.911 152.879C167.06 151.881 167.203 150.886 167.341 149.894C142.651 144.648 117.918 139.381 93.1423 134.094C92.9539 135.08 92.7831 136.06 92.6064 137.046Z" fill="#DBDBDB"/>
<path d="M93.8613 129.577C118.594 134.853 143.3 140.106 167.977 145.338L168.384 142.342C143.718 137.106 119.028 131.86 94.3148 126.603C94.1695 127.598 94.0184 128.589 93.8613 129.577Z" fill="#DBDBDB"/>
<path d="M94.9795 122.058C119.677 127.312 144.353 132.553 169.007 137.781C169.145 136.782 169.282 135.785 169.419 134.79L95.4035 119.073L94.9795 122.058Z" fill="#DBDBDB"/>
<path d="M96.0283 114.511L170.062 130.239C170.203 129.242 170.351 128.251 170.498 127.254L96.4405 111.521C96.3051 112.501 96.1638 113.514 96.0283 114.511Z" fill="#DBDBDB"/>
<path d="M97.0645 106.961C121.742 112.203 146.448 117.459 171.181 122.727C171.341 121.736 171.502 120.748 171.663 119.765C146.864 114.474 122.131 109.209 97.4649 103.97C97.3353 104.969 97.2019 105.965 97.0645 106.961Z" fill="#DBDBDB"/>
<path d="M98.1602 99.424C122.893 104.674 147.671 109.956 172.494 115.269C172.675 114.289 172.859 113.31 173.048 112.334C148.142 107.006 123.329 101.709 98.6077 96.4443C98.4389 97.4357 98.2897 98.4289 98.1602 99.424Z" fill="#DBDBDB"/>
<path d="M99.3027 91.9222C124.087 97.2057 148.965 102.528 173.937 107.89C174.141 106.921 174.357 105.953 174.585 104.988C149.546 99.6005 124.621 94.2595 99.8092 88.9648C99.6325 89.9506 99.4676 90.9364 99.3027 91.9222Z" fill="#DBDBDB"/>
<path d="M100.628 84.4816C125.514 89.8096 150.522 95.1841 175.651 100.605C175.898 99.6545 176.151 98.704 176.411 97.7534C151.199 92.2954 126.13 86.8968 101.205 81.5576C101.005 82.5323 100.816 83.5069 100.628 84.4816Z" fill="#DBDBDB"/>
<path d="M102.158 77.1294C127.178 82.5169 152.344 87.9544 177.658 93.4422C177.953 92.5065 178.247 91.5764 178.559 90.6575C153.135 85.1215 127.888 79.6523 102.818 74.25C102.6 75.1857 102.376 76.1603 102.158 77.1294Z" fill="#DBDBDB"/>
<path d="M77.0844 78.5944C77.2434 79.1513 80.2702 82.8104 83.0438 82.6099C83.9448 82.5375 83.774 77.8592 83.774 77.8592L83.8447 77.5139L84.834 72.6351L78.7273 69.1598L77.844 68.7031C77.844 68.7031 77.6674 70.0509 77.4612 71.7384C77.4612 71.8164 77.4612 71.8944 77.4318 71.9779C77.4024 72.0615 77.4318 72.1617 77.3965 72.2508C77.3611 72.5015 77.3258 72.7577 77.3022 73.0138C77.2787 73.27 77.2551 73.3981 77.2434 73.6042C77.2316 73.8103 77.2021 74.0108 77.1845 74.2168C77.0449 75.6721 77.0115 77.1348 77.0844 78.5944Z" fill="#FFFDFA"/>
<path d="M84.8389 72.6351L83.8849 77.319C81.104 76.4808 78.7795 74.6481 77.4072 72.2119L77.4661 71.7384C77.6722 70.0676 77.8489 68.7031 77.8489 68.7031L78.7322 69.1598L84.8389 72.6351Z" fill="#263238"/>
<path d="M91.0932 64.7269C92.377 73.3539 87.0535 75.0526 85.0867 75.3088C83.32 75.5427 77.1898 76.1275 74.9757 67.6676C72.7615 59.2077 76.5951 55.9217 80.6524 55.181C84.7098 54.4402 89.8389 56.0999 91.0932 64.7269Z" fill="#FFFDFA"/>
<path d="M89.5683 63.5622C89.357 63.5494 89.1466 63.5252 88.9382 63.4898C88.7114 63.491 88.4903 63.4226 88.3081 63.2949C88.2593 63.245 88.2299 63.1809 88.2245 63.1131C88.2192 63.0454 88.2382 62.9779 88.2786 62.9217C88.3729 62.8185 88.4948 62.7412 88.6316 62.698C88.7685 62.6549 88.915 62.6475 89.0559 62.6767C89.353 62.6923 89.6328 62.8136 89.8391 63.0164C89.884 63.0644 89.9129 63.1238 89.9225 63.1873C89.9321 63.2507 89.9219 63.3154 89.8931 63.3734C89.8643 63.4314 89.8182 63.4801 89.7605 63.5137C89.7028 63.5472 89.636 63.5641 89.5683 63.5622Z" fill="#263238"/>
<path d="M83.3438 63.8974C83.5431 63.8494 83.7397 63.7918 83.9327 63.7248C84.158 63.694 84.3655 63.5919 84.5216 63.4352C84.5612 63.3784 84.5793 63.3106 84.5729 63.2428C84.5664 63.175 84.5359 63.1113 84.4863 63.062C84.3743 62.9755 84.2398 62.9189 84.0969 62.8983C83.9539 62.8778 83.8077 62.8939 83.6736 62.9451C83.3837 63.0068 83.1291 63.17 82.9611 63.4018C82.9228 63.4576 82.9034 63.5231 82.9054 63.5896C82.9074 63.6561 82.9307 63.7204 82.9721 63.7742C83.0136 63.8279 83.0714 63.8684 83.1377 63.8904C83.2041 63.9124 83.276 63.9149 83.3438 63.8974Z" fill="#263238"/>
<path d="M84.8101 65.5176C84.8101 65.5176 84.763 65.5176 84.7689 65.5733C84.8572 66.1581 84.8513 66.8487 84.3096 67.0993C84.3096 67.0993 84.3096 67.1383 84.3096 67.1327C84.9927 66.9712 84.9927 66.0578 84.8101 65.5176Z" fill="#263238"/>
<path d="M84.1797 64.9553C83.1727 64.9887 83.3082 66.899 84.2445 66.8711C85.1808 66.8433 85.0277 64.933 84.1797 64.9553Z" fill="#263238"/>
<path d="M83.7911 65.0848C83.6262 65.2018 83.4672 65.4079 83.2552 65.4413C83.0432 65.4747 82.8077 65.2909 82.6369 65.1071H82.6016C82.6016 65.4691 82.7959 65.8367 83.1904 65.8645C83.585 65.8924 83.8205 65.5471 83.8853 65.1739C83.9324 65.1628 83.8618 65.0347 83.7911 65.0848Z" fill="#263238"/>
<path d="M88.3084 65.2109C88.3084 65.2109 88.3614 65.2109 88.3614 65.2611C88.3614 65.8514 88.5321 66.5253 89.1151 66.6813V66.7147C88.4144 66.6757 88.2377 65.779 88.3084 65.2109Z" fill="#263238"/>
<path d="M88.814 64.5534C89.815 64.403 90.0565 66.3022 89.1319 66.4414C88.2074 66.5807 87.9778 64.6759 88.814 64.5534Z" fill="#263238"/>
<path d="M89.2503 64.6325C89.421 64.7105 89.6036 64.8776 89.792 64.8665C89.9805 64.8553 90.1512 64.6325 90.269 64.4209C90.269 64.4209 90.2985 64.4209 90.3044 64.4209C90.3574 64.7829 90.3043 65.1728 89.9216 65.2897C89.5388 65.4067 89.3327 65.1059 89.1678 64.7328C89.1384 64.7049 89.1796 64.6047 89.2503 64.6325Z" fill="#263238"/>
<path d="M85.6229 70.3471C85.7937 70.464 85.9703 70.6311 86.2118 70.62C86.4432 70.5845 86.664 70.5028 86.8595 70.3805C86.8595 70.3805 86.9008 70.3805 86.889 70.3805C86.8173 70.5083 86.7106 70.6155 86.58 70.6909C86.4495 70.7664 86.3 70.8073 86.147 70.8093C86.0117 70.7978 85.8833 70.7481 85.7782 70.6667C85.6732 70.5853 85.5965 70.4758 85.5581 70.3526C85.5522 70.3471 85.5993 70.3304 85.6229 70.3471Z" fill="#263238"/>
<path d="M85.205 68.7933C85.396 68.9975 85.6296 69.1623 85.891 69.2773C86.1524 69.3923 86.4361 69.4551 86.7243 69.4617C86.9761 69.4667 87.2275 69.4404 87.4722 69.3837L87.6135 69.3447L87.7431 69.3057C87.7752 69.2967 87.8029 69.2772 87.8212 69.2507C87.8396 69.2242 87.8473 69.1924 87.8432 69.1609C87.8466 69.1425 87.8466 69.1236 87.8432 69.1052V69.0607C87.7784 68.6151 87.6253 67.9468 87.6253 67.9468C87.8078 68.0025 88.7383 68.242 88.6853 68.0136C88.3041 66.0334 87.7122 64.0946 86.9186 62.227C86.9127 62.2153 86.9027 62.2059 86.8902 62.2005C86.8778 62.195 86.8638 62.1938 86.8505 62.1971C86.8372 62.2004 86.8256 62.208 86.8176 62.2185C86.8096 62.2291 86.8058 62.2419 86.8067 62.2549C87.1542 64.0928 87.8314 65.8527 88.2083 67.6906C87.8772 67.6004 87.5341 67.5553 87.1895 67.5569C87.1247 67.5569 87.5134 68.8323 87.5252 69.0384C87.1483 69.1327 86.7552 69.1537 86.3695 69.1001C85.9839 69.0465 85.6137 68.9194 85.2815 68.7265C85.205 68.7098 85.152 68.7543 85.205 68.7933Z" fill="#263238"/>
<path d="M75.0875 67.188C77.2722 67.0989 77.0779 63.8464 77.0779 63.8464C77.0779 63.8464 79.5394 63.5122 79.5158 59.7306C80.0398 60.4684 80.7384 61.0805 81.5562 61.5185C82.3739 61.9564 83.2883 62.2081 84.2269 62.2535C84.9453 62.3204 82.4602 60.6941 82.4602 60.6941C82.4602 60.6941 85.4399 62.9998 90.7045 61.808C91.0755 61.7244 89.992 56.4836 85.7462 54.8852C81.5004 53.2868 77.8199 54.4842 75.3819 57.113C74.6694 57.5116 74.0719 58.0704 73.6425 58.7398C73.2131 59.4092 72.9651 60.1685 72.9204 60.9503C72.6908 63.6793 74.2395 67.2214 75.0875 67.188Z" fill="#263238"/>
<path d="M76.5424 68.1466C76.5424 68.1466 74.3871 65.529 73.1211 66.2697C71.855 67.0105 73.5863 70.8756 75.1468 71.3379C75.3425 71.4093 75.5514 71.4427 75.7611 71.4361C75.9708 71.4294 76.1769 71.3828 76.3671 71.2991C76.5573 71.2154 76.7277 71.0963 76.8681 70.9489C77.0085 70.8015 77.1161 70.6288 77.1843 70.4412L76.5424 68.1466Z" fill="#FFFDFA"/>
<path d="M73.6445 67.3887V67.4277C74.7398 67.7841 75.3582 68.6975 75.8057 69.6554C75.738 69.557 75.6486 69.4735 75.5436 69.4109C75.4385 69.3482 75.3204 69.3078 75.1973 69.2925C75.0742 69.2771 74.949 69.2872 74.8304 69.322C74.7118 69.3567 74.6025 69.4154 74.5102 69.4939C74.4807 69.4939 74.5102 69.5552 74.5102 69.5496C74.6955 69.4832 74.8981 69.4728 75.09 69.5197C75.2819 69.5665 75.4537 69.6684 75.5819 69.8114C75.7925 70.0539 75.9779 70.315 76.1355 70.5911C76.1885 70.6802 76.3593 70.6245 76.318 70.5187C76.2827 69.182 75.1226 67.4221 73.6445 67.3887Z" fill="#263238"/>
<path d="M76.1775 70.8873C76.1831 70.9719 76.1621 71.0561 76.1171 71.1294C76.0721 71.2027 76.0052 71.2618 75.9248 71.2991C75.8444 71.3365 75.754 71.3505 75.6652 71.3393C75.5764 71.3281 75.4931 71.2924 75.4257 71.2364C75.3584 71.1805 75.3101 71.107 75.2869 71.0252C75.2637 70.9433 75.2667 70.8568 75.2955 70.7765C75.3242 70.6963 75.3775 70.6259 75.4485 70.5742C75.5196 70.5226 75.6052 70.492 75.6946 70.4863C75.7542 70.4825 75.8139 70.4899 75.8705 70.5081C75.927 70.5262 75.9792 70.5547 76.0241 70.5919C76.069 70.6292 76.1056 70.6745 76.1319 70.7252C76.1582 70.7759 76.1737 70.831 76.1775 70.8873Z" fill="white"/>
<path d="M77.5964 65.1677L73.7393 65.151L73.8217 64.1875L77.6317 64.6219L77.5964 65.1677Z" fill="url(#paint22_linear_378_6974)"/>
<path d="M77.7611 64.2429L73.9629 63.5802L74.2279 62.6445L77.8966 63.7139L77.7611 64.2429Z" fill="url(#paint23_linear_378_6974)"/>
<path d="M69.505 83.7512C67.7384 88.0675 61.137 108.474 63.9813 115.97C65.748 120.571 82.9491 129.638 87.3068 131.659C89.2088 132.539 96.1399 120.949 95.2978 118.967C94.4557 116.984 78.0319 109.337 76.9602 108.101C76.9602 108.101 76.3713 93.5533 76.0415 85.823C75.7235 78.4937 72.838 75.6811 69.505 83.7512Z" fill="#FFFDFA"/>
<path d="M106.304 125.634C108.736 126.62 112.782 126.013 112.593 127.862C112.405 129.532 109.549 129.672 109.549 129.672C109.549 129.672 112.829 130.474 112.098 132.189C111.368 133.904 108.2 133.481 108.2 133.481C108.2 133.481 110.962 134.038 110.102 135.709C109.242 137.38 106.475 137.48 106.475 137.48C106.475 137.48 107.152 138.148 105.986 139.067C104.313 140.382 99.7261 139.452 97.4472 138.427C95.1682 137.402 87.6424 132.067 86.5059 131.231L93.325 117.363C93.325 117.363 98.2598 117.413 100.757 117.731C103.254 118.048 111.18 121.251 110.473 123.167C109.767 125.082 104.213 122.727 102.718 122.431C101.222 122.136 100.898 122.431 101.463 123.044C101.834 123.439 105.226 125.199 106.304 125.634Z" fill="#FFFDFA"/>
<path d="M109.413 129.616C105.415 129.571 103.678 128.903 100.374 126.881C100.309 126.842 100.233 126.926 100.292 126.97C103.336 129.226 105.391 130.368 109.419 129.8C109.619 129.766 109.602 129.616 109.413 129.616Z" fill="#263238"/>
<path d="M108.371 133.447C104.219 133.063 102.323 132.333 98.7016 130.473C98.6903 130.47 98.6781 130.47 98.6669 130.474C98.6558 130.478 98.6465 130.485 98.6404 130.495C98.6342 130.505 98.6317 130.516 98.6332 130.527C98.6347 130.538 98.6401 130.549 98.6486 130.557C102.041 132.678 104.119 133.77 108.312 133.642C108.506 133.664 108.559 133.464 108.371 133.447Z" fill="#263238"/>
<path d="M106.434 137.43C102.453 136.784 100.339 136.088 97.0646 133.843C97.0498 133.832 97.0306 133.826 97.0112 133.827C96.9919 133.829 96.974 133.838 96.9615 133.852C96.949 133.866 96.9429 133.884 96.9446 133.902C96.9463 133.921 96.9555 133.937 96.9704 133.949C100.068 136.55 102.7 137.436 106.392 137.547C106.657 137.564 106.687 137.475 106.434 137.43Z" fill="#263238"/>
<path d="M77.5493 96.0553L63.752 98.5783C63.752 98.5783 68.2274 84.5712 70.7714 80.8007C73.6392 76.5624 75.3057 78.8737 76.4305 83.5353C77.5552 88.1969 77.5493 96.0553 77.5493 96.0553Z" fill="url(#paint24_linear_378_6974)"/>
<path d="M74.9642 88.6581C74.9653 88.858 74.9037 89.0536 74.787 89.2202C74.6703 89.3869 74.5039 89.5169 74.3089 89.5939C74.1139 89.6709 73.8991 89.6913 73.6918 89.6526C73.4845 89.6139 73.294 89.5178 73.1446 89.3765C72.9952 89.2352 72.8936 89.055 72.8526 88.859C72.8117 88.6629 72.8333 88.4598 72.9147 88.2753C72.9961 88.0909 73.1336 87.9335 73.3098 87.8232C73.486 87.7128 73.6929 87.6545 73.9042 87.6556C74.1848 87.6571 74.4535 87.7632 74.652 87.9508C74.8504 88.1385 74.9626 88.3927 74.9642 88.6581ZM70.0883 81.9414C69.8115 82.4594 69.4994 83.0553 69.2285 83.7125C69.4095 83.8476 69.6339 83.9203 69.8645 83.9185C70.0039 83.9193 70.1421 83.8939 70.271 83.8437C70.4 83.7936 70.5172 83.7198 70.6158 83.6266C70.7143 83.5333 70.7924 83.4225 70.8454 83.3006C70.8984 83.1786 70.9252 83.0479 70.9245 82.9161C70.9265 82.687 70.8442 82.4645 70.6916 82.2866C70.539 82.1087 70.3257 81.9867 70.0883 81.9414ZM69.8939 93.5926C69.6845 93.5937 69.4802 93.6534 69.3067 93.7642C69.1331 93.8751 68.9982 94.032 68.9188 94.2153C68.8395 94.3986 68.8194 94.6 68.8609 94.7941C68.9025 94.9882 69.0039 95.1663 69.1524 95.3059C69.3009 95.4455 69.4897 95.5405 69.6952 95.5787C69.9006 95.6169 70.1135 95.5968 70.3068 95.5207C70.5002 95.4447 70.6653 95.3162 70.7816 95.1515C70.8978 94.9867 70.9598 94.7931 70.9598 94.5951C70.9582 94.3287 70.8453 94.0737 70.6455 93.8859C70.4458 93.698 70.1756 93.5926 69.8939 93.5926ZM77.5493 93.6761C77.3565 93.7555 77.193 93.8872 77.0796 94.0547C76.9661 94.2221 76.9079 94.4177 76.9123 94.6165C76.9168 94.8153 76.9836 95.0084 77.1044 95.1712C77.2251 95.334 77.3944 95.4592 77.5906 95.5307C77.5493 95.113 77.5493 94.4726 77.5493 93.6761Z" fill="white"/>
<path d="M65.2241 95.8822C65.6893 95.7263 69.9822 94.8798 70.9185 94.7182C71.8548 94.5567 75.6825 93.8494 76.666 93.7547C76.6713 93.7525 76.6772 93.7516 76.6831 93.7521C76.6889 93.7525 76.6945 93.7544 76.6994 93.7574C76.7043 93.7604 76.7084 93.7646 76.7112 93.7695C76.714 93.7744 76.7154 93.7798 76.7154 93.7854C76.7154 93.7909 76.714 93.7964 76.7112 93.8013C76.7084 93.8061 76.7043 93.8103 76.6994 93.8133C76.6945 93.8164 76.6889 93.8182 76.6831 93.8187C76.6772 93.8191 76.6713 93.8182 76.666 93.816C75.7238 94.0833 71.8725 94.8074 70.9185 94.9911C69.9645 95.1749 65.7011 95.9212 65.2182 95.9435C65.1829 95.9435 65.1829 95.8934 65.2241 95.8822Z" fill="#263238"/>
<path d="M76.4716 96.2445C76.8838 96.1387 77.5257 96.005 77.5257 96.005C77.5257 94.4567 76.8661 86.6484 76.7366 84.7604C76.7366 84.727 76.7837 84.727 76.7837 84.7604C76.9328 85.826 77.0702 86.8879 77.1959 87.9461C77.1959 87.8124 77.1959 87.6788 77.1959 87.5451C77.2253 87.0606 77.2665 86.5816 77.2783 86.1026C77.2783 86.0581 77.3431 86.0525 77.3431 86.1026C77.3783 86.5866 77.3783 87.0723 77.3431 87.5563C77.3137 87.9016 77.2665 88.2357 77.2135 88.5755C77.2842 89.1881 77.3608 89.7952 77.4138 90.4078C77.5787 92.2902 77.8201 94.234 77.8319 96.122C77.3712 96.238 76.9 96.3125 76.4244 96.3448C76.4186 96.3503 76.4127 96.2612 76.4716 96.2445Z" fill="#263238"/>
<path d="M65.0883 98.3103C64.6467 98.4329 64.2109 98.5331 63.7693 98.6445L63.6279 98.6779V98.5331C64.0098 96.8087 64.5054 95.1085 65.1119 93.4427C65.4122 92.6073 65.7008 91.7719 66.0835 90.9643C66.4663 90.1567 66.802 89.3436 67.2142 88.5527C66.9492 89.3993 66.6606 90.2236 66.378 91.0645L65.5182 93.5708L63.8105 98.5832L63.7045 98.4718C64.1815 98.4161 64.6349 98.3549 65.0883 98.3103Z" fill="#263238"/>
<path d="M66.0133 91.6663C65.8883 91.319 65.856 90.9478 65.9191 90.5858C65.9409 90.3968 65.9824 90.2102 66.0428 90.0289C66.1026 89.8553 66.1837 89.689 66.2842 89.5332C66.2887 89.8892 66.2631 90.2449 66.2077 90.597C66.1547 90.9701 66.1017 91.3377 66.0133 91.6663Z" fill="#263238"/>
<path d="M132.002 60.7061C132.5 60.6497 133.003 60.7445 133.439 60.9768C133.875 61.2092 134.222 61.5669 134.429 61.9982C134.429 61.9982 135.494 60.1213 137.373 60.2494C138.333 60.3163 139.063 61.8256 139.063 61.8256C139.063 61.8256 139.988 60.3608 141.636 60.5725C142.956 60.7395 143.491 62.2433 143.491 62.2433C143.491 62.2433 145.07 61.2241 146.353 61.8033C148.95 62.9729 148.621 73.7552 144.369 75.3035C142.39 76.0276 142.602 73.3988 142.602 73.3988C142.602 73.3988 141.307 77.1024 138.957 77.0913C136.607 77.0802 137.12 73.6884 137.12 73.6884C137.12 73.6884 135.83 77.264 133.392 77.03C130.854 76.7794 131.991 73.4656 131.991 73.4656C131.991 73.4656 130.224 75.8159 128.381 75.2256C125.372 74.2565 129.635 69.1828 129.111 66.7991L124.471 65.6852C124.471 65.6852 129.959 60.8565 132.002 60.7061Z" fill="#FFFDFA"/>
<path d="M143.598 62.42C143.598 62.3866 143.651 62.3755 143.657 62.42C144.509 66.1324 144.145 70.0021 142.614 73.5143C142.567 73.6257 142.355 73.5922 142.385 73.4586C143.357 69.8548 143.766 66.1358 143.598 62.42Z" fill="#263238"/>
<path d="M139.075 61.7472C139.075 61.7082 139.146 61.7026 139.158 61.7472C139.964 65.4286 139.523 70.1013 137.226 73.7715C137.15 73.8996 136.944 73.9386 137.026 73.7715C138.357 71.2374 139.287 65.2281 139.075 61.7472Z" fill="#263238"/>
<path d="M131.726 73.6325C133.781 70.0346 134.411 66.175 134.452 62.1205C134.452 62.0704 134.535 62.0759 134.546 62.1205C135.094 64.1088 134.782 66.6874 134.358 68.6757C134.002 70.5249 133.139 72.2533 131.855 73.6881C131.82 73.7605 131.726 73.7104 131.726 73.6325Z" fill="#263238"/>
<path d="M142.508 73.5651C142.268 74.3156 141.909 75.0273 141.442 75.6759C140.993 76.3727 140.289 76.8898 139.464 77.1295C139.03 77.2383 138.57 77.2149 138.151 77.0626C137.729 76.882 137.399 76.552 137.232 76.1437C136.947 75.3715 136.876 74.5432 137.026 73.7377L137.42 73.838C137.118 74.5926 136.682 75.2932 136.131 75.9098C135.576 76.5612 134.792 77.0021 133.922 77.1518C133.474 77.2101 133.018 77.1583 132.597 77.0014C132.385 76.9139 132.193 76.7863 132.034 76.6264C131.875 76.4665 131.752 76.2776 131.673 76.0713C131.435 75.2799 131.457 74.4386 131.738 73.6597L131.985 73.7878C131.712 74.0801 131.411 74.3468 131.084 74.5843C130.761 74.8248 130.404 75.0217 130.024 75.1691C129.64 75.3169 129.223 75.3724 128.811 75.3306C128.407 75.2672 128.033 75.0884 127.739 74.8182C128.049 75.0558 128.426 75.2029 128.823 75.2415C129.215 75.258 129.606 75.1814 129.959 75.0187C130.658 74.677 131.273 74.1986 131.761 73.6152L132.156 73.1696L132.009 73.7266C131.774 74.4526 131.774 75.2283 132.009 75.9543C132.071 76.1155 132.168 76.2625 132.294 76.3862C132.419 76.5099 132.571 76.6075 132.739 76.6728C133.092 76.7976 133.473 76.834 133.846 76.7786C134.612 76.6379 135.299 76.2428 135.783 75.6647C136.303 75.0875 136.72 74.435 137.02 73.7321L137.656 72.2451L137.415 73.8324C137.27 74.5663 137.323 75.3227 137.568 76.0323C137.692 76.3625 137.945 76.6354 138.274 76.7953C138.628 76.9217 139.014 76.9431 139.381 76.8566C140.154 76.6489 140.826 76.1942 141.283 75.5701C141.787 74.9583 142.2 74.2836 142.508 73.5651Z" fill="#263238"/>
<path d="M152.655 190.022C163.41 190.022 172.129 181.776 172.129 171.604C172.129 161.432 163.41 153.186 152.655 153.186C141.9 153.186 133.181 161.432 133.181 171.604C133.181 181.776 141.9 190.022 152.655 190.022Z" fill="url(#paint25_linear_378_6974)"/>
<path d="M154.657 160.226H150.658V182.977H154.657V160.226Z" fill="white"/>
<path d="M164.686 173.497V169.716H140.63V173.497H164.686Z" fill="white"/>
<defs>
<linearGradient id="paint0_linear_378_6974" x1="51.3887" y1="141.671" x2="51.3887" y2="163.868" gradientUnits="userSpaceOnUse">
<stop stop-color="#FFBD00" stop-opacity="0.99"/>
<stop offset="1" stop-color="#FCA51C"/>
</linearGradient>
<linearGradient id="paint1_linear_378_6974" x1="17.6237" y1="159.4" x2="17.6237" y2="178.259" gradientUnits="userSpaceOnUse">
<stop stop-color="#FFBD00" stop-opacity="0.99"/>
<stop offset="1" stop-color="#FCA51C"/>
</linearGradient>
<linearGradient id="paint2_linear_378_6974" x1="16.3749" y1="135.289" x2="16.3749" y2="164.72" gradientUnits="userSpaceOnUse">
<stop stop-color="#FFBD00" stop-opacity="0.99"/>
<stop offset="1" stop-color="#FCA51C"/>
</linearGradient>
<linearGradient id="paint3_linear_378_6974" x1="40.0071" y1="132.035" x2="40.0071" y2="145.172" gradientUnits="userSpaceOnUse">
<stop stop-color="#FFBD00" stop-opacity="0.99"/>
<stop offset="1" stop-color="#FCA51C"/>
</linearGradient>
<linearGradient id="paint4_linear_378_6974" x1="40.1514" y1="153.589" x2="40.1514" y2="179.724" gradientUnits="userSpaceOnUse">
<stop stop-color="#FFBD00" stop-opacity="0.99"/>
<stop offset="1" stop-color="#FCA51C"/>
</linearGradient>
<linearGradient id="paint5_linear_378_6974" x1="259.047" y1="147.435" x2="259.047" y2="247.394" gradientUnits="userSpaceOnUse">
<stop stop-color="#FFBD00" stop-opacity="0.99"/>
<stop offset="1" stop-color="#FCA51C"/>
</linearGradient>
<linearGradient id="paint6_linear_378_6974" x1="313.544" y1="137.08" x2="313.544" y2="147.434" gradientUnits="userSpaceOnUse">
<stop stop-color="#FFBD00" stop-opacity="0.99"/>
<stop offset="1" stop-color="#FCA51C"/>
</linearGradient>
<linearGradient id="paint7_linear_378_6974" x1="246.522" y1="161.401" x2="246.522" y2="174.846" gradientUnits="userSpaceOnUse">
<stop stop-color="#FFBD00" stop-opacity="0.99"/>
<stop offset="1" stop-color="#FCA51C"/>
</linearGradient>
<linearGradient id="paint8_linear_378_6974" x1="258.204" y1="154.235" x2="258.204" y2="174.848" gradientUnits="userSpaceOnUse">
<stop stop-color="#FFBD00" stop-opacity="0.99"/>
<stop offset="1" stop-color="#FCA51C"/>
</linearGradient>
<linearGradient id="paint9_linear_378_6974" x1="269.888" y1="146.203" x2="269.888" y2="174.847" gradientUnits="userSpaceOnUse">
<stop stop-color="#FFBD00" stop-opacity="0.99"/>
<stop offset="1" stop-color="#FCA51C"/>
</linearGradient>
<linearGradient id="paint10_linear_378_6974" x1="281.577" y1="142.756" x2="281.577" y2="174.847" gradientUnits="userSpaceOnUse">
<stop stop-color="#FFBD00" stop-opacity="0.99"/>
<stop offset="1" stop-color="#FCA51C"/>
</linearGradient>
<linearGradient id="paint11_linear_378_6974" x1="293.261" y1="136.613" x2="293.261" y2="174.847" gradientUnits="userSpaceOnUse">
<stop stop-color="#FFBD00" stop-opacity="0.99"/>
<stop offset="1" stop-color="#FCA51C"/>
</linearGradient>
<linearGradient id="paint12_linear_378_6974" x1="304.943" y1="130.542" x2="304.943" y2="174.847" gradientUnits="userSpaceOnUse">
<stop stop-color="#FFBD00" stop-opacity="0.99"/>
<stop offset="1" stop-color="#FCA51C"/>
</linearGradient>
<linearGradient id="paint13_linear_378_6974" x1="255.926" y1="91.7227" x2="255.926" y2="220.849" gradientUnits="userSpaceOnUse">
<stop stop-color="#FFBD00" stop-opacity="0.99"/>
<stop offset="1" stop-color="#FCA51C"/>
</linearGradient>
<linearGradient id="paint14_linear_378_6974" x1="295.425" y1="91.7627" x2="295.425" y2="116.368" gradientUnits="userSpaceOnUse">
<stop stop-color="#FFBD00" stop-opacity="0.99"/>
<stop offset="1" stop-color="#FCA51C"/>
</linearGradient>
<linearGradient id="paint15_linear_378_6974" x1="265.053" y1="155.728" x2="265.053" y2="247.394" gradientUnits="userSpaceOnUse">
<stop stop-color="#FFBD00" stop-opacity="0.99"/>
<stop offset="1" stop-color="#FCA51C"/>
</linearGradient>
<linearGradient id="paint16_linear_378_6974" x1="325.758" y1="146.231" x2="325.758" y2="155.727" gradientUnits="userSpaceOnUse">
<stop stop-color="#FFBD00" stop-opacity="0.99"/>
<stop offset="1" stop-color="#FCA51C"/>
</linearGradient>
<linearGradient id="paint17_linear_378_6974" x1="106.418" y1="235.317" x2="106.418" y2="235.396" gradientUnits="userSpaceOnUse">
<stop stop-color="#FFBD00" stop-opacity="0.99"/>
<stop offset="1" stop-color="#FCA51C"/>
</linearGradient>
<linearGradient id="paint18_linear_378_6974" x1="97.5483" y1="234.783" x2="97.5483" y2="245.523" gradientUnits="userSpaceOnUse">
<stop stop-color="#FFBD00" stop-opacity="0.99"/>
<stop offset="1" stop-color="#FCA51C"/>
</linearGradient>
<linearGradient id="paint19_linear_378_6974" x1="38.6696" y1="221.021" x2="38.6696" y2="247.389" gradientUnits="userSpaceOnUse">
<stop stop-color="#FFBD00" stop-opacity="0.99"/>
<stop offset="1" stop-color="#FCA51C"/>
</linearGradient>
<linearGradient id="paint20_linear_378_6974" x1="87.4181" y1="76.126" x2="87.4181" y2="87.8402" gradientUnits="userSpaceOnUse">
<stop stop-color="#FFBD00" stop-opacity="0.99"/>
<stop offset="1" stop-color="#FCA51C"/>
</linearGradient>
<linearGradient id="paint21_linear_378_6974" x1="77.9441" y1="76.1865" x2="77.9441" y2="109.589" gradientUnits="userSpaceOnUse">
<stop stop-color="#FFBD00" stop-opacity="0.99"/>
<stop offset="1" stop-color="#FCA51C"/>
</linearGradient>
<linearGradient id="paint22_linear_378_6974" x1="75.6855" y1="64.1875" x2="75.6855" y2="65.1677" gradientUnits="userSpaceOnUse">
<stop stop-color="#FFBD00" stop-opacity="0.99"/>
<stop offset="1" stop-color="#FCA51C"/>
</linearGradient>
<linearGradient id="paint23_linear_378_6974" x1="75.9297" y1="62.6445" x2="75.9297" y2="64.2429" gradientUnits="userSpaceOnUse">
<stop stop-color="#FFBD00" stop-opacity="0.99"/>
<stop offset="1" stop-color="#FCA51C"/>
</linearGradient>
<linearGradient id="paint24_linear_378_6974" x1="70.6506" y1="78.5732" x2="70.6506" y2="98.5783" gradientUnits="userSpaceOnUse">
<stop stop-color="#FFBD00" stop-opacity="0.99"/>
<stop offset="1" stop-color="#FCA51C"/>
</linearGradient>
<linearGradient id="paint25_linear_378_6974" x1="152.655" y1="153.186" x2="152.655" y2="190.022" gradientUnits="userSpaceOnUse">
<stop stop-color="#FFBD00" stop-opacity="0.99"/>
<stop offset="1" stop-color="#FCA51C"/>
</linearGradient>
</defs>
</svg>
